<?xml version="1.0" encoding="utf-8"?>
<!-- Generator: Adobe Illustrator 24.0.1, SVG Export Plug-In . SVG Version: 6.00 Build 0)  -->
<svg version="1.1" id="Layer_1" xmlns="http://www.w3.org/2000/svg" xmlns:xlink="http://www.w3.org/1999/xlink" x="0px" y="0px"
	 viewBox="0 0 1137.1 705.8" style="enable-background:new 0 0 1137.1 705.8;" xml:space="preserve">
<style type="text/css">
	.st0{opacity:0.1;fill:#80CBC4;enable-background:new    ;}
	.st1{fill:none;stroke:#535461;stroke-width:2;stroke-miterlimit:10;}
	.st2{fill:#F42272;}
	.st3{fill:#6C63FF;}
	.st4{opacity:0.25;enable-background:new    ;}
	.st5{fill:#80CBC4;}
	.st6{fill:url(#SVGID_1_);}
	.st7{fill:#965D7B;}
	.st8{opacity:0.1;}
	.st9{fill:#FFC1C7;}
	.st10{opacity:0.1;enable-background:new    ;}
	.st11{fill:#DBE5F2;}
	.st12{fill:#FFD5D7;}
	.st13{fill:none;}
	.st14{opacity:0.5;fill:#CE8EA0;enable-background:new    ;}
	.st15{fill:#575988;}
	.st16{fill:#FFC1C6;}
	.st17{opacity:0.1;fill:#F42272;enable-background:new    ;}
</style>
<title>motherhood</title>
<path class="st0" d="M1127.9,489.2C1108,550.1,1057,595.9,1002.2,629c-73.8,44.5-158.3,69.7-244.2,75.5c-9.3,0.7-18.5,1.1-27.8,1.2
	c-1.1,0-2.1,0.1-3.2,0.1c-0.3,0-0.6,0-0.9,0c-4.5,0.1-8.9,0.1-13.4,0c-26.6-0.3-53.1-2.4-79.3-6.4l-3.8-0.6l-4.9-0.8l0,0
	c-17.1-2.8-34-6.5-50.7-10.9c-5.4-1.4-10.9-3-16.3-4.6c-2-0.6-3.9-1.2-5.9-1.8c-12.5-3.9-24.9-8.2-37.2-13c-0.9-0.3-1.8-0.7-2.7-1.1
	c-22.7-9-44.7-19.5-65.9-31.6l-2.1-1.2l-1.3-0.7l-2.1-1.2c-1.5-0.9-3-1.7-4.5-2.6c-2.2-1.3-4.4-2.6-6.5-4l-1.9-1.2
	c-3.1-2-6.2-3.9-9.4-5.8c-1.4-0.8-2.7-1.6-4.1-2.5h-0.1c-6.6-4-13.5-7.4-20.8-10c-2.7-0.9-5.4-1.7-8.1-2.3c-0.9-0.2-1.7-0.4-2.6-0.6
	l0,0l-2.2-0.4c-0.4-0.1-0.9-0.2-1.3-0.2H379c-25.6-3.9-52.7,3.6-76.8,14.1c-19.9,8.7-39,19.5-58.8,28.1c-8.8,3.9-17.9,7.1-27.2,9.8
	c-20.8,5.6-42.5,6.6-63.7,3.1c-0.6-0.1-1.2-0.2-1.8-0.3c-3-0.5-6.1-1.1-9.1-1.8l-1.8-0.4c-2.9-0.7-5.8-1.4-8.6-2.3l-1.9-0.6
	c-2.9-0.9-5.8-1.9-8.7-3c-1-0.4-2-0.8-3-1.2c-16.3-6.4-31.5-15.2-45.1-26.2c-0.4-0.3-0.8-0.6-1.1-0.9c-1.9-1.6-3.8-3.2-5.6-4.8
	c-0.7-0.6-1.3-1.2-2-1.8c-2.2-2-4.3-4.1-6.4-6.3l-0.9-0.9c-8.5-8.9-15.8-18.7-21.9-29.4c-0.2-0.3-0.4-0.7-0.5-1
	c-1.9-3.4-3.7-6.8-5.3-10.4c-0.7-1.5-1.3-3-1.9-4.5c-0.2-0.4-0.4-0.9-0.6-1.3c-8.9-21.8-12.8-45.2-15.9-68.6
	c-0.4-2.7-0.7-5.5-1.1-8.2c-5-37.9-9.6-76.4-9.1-114.5c0-0.3,0-0.5,0-0.8c0.2-12.8,1-25.6,2.5-38.4c1.6-13.3,4.2-26.6,7.7-39.5
	c8.7-32,23.7-62,41-90.3C94.7,128.8,155.9,65.7,233.4,34.7C316.8,1.2,415.6,9,492.8,55c23.5,14,45.3,31.5,71,41.2
	c22.3,8.5,47.4,9.8,68.5-2.1c17.4-9.9,28.9-15.1,49.8-16.8c43.2-3.4,86.6-0.3,128.9,9.2c1.7,0.4,3.4,0.8,5.1,1.2
	c110.3,25.9,211.3,93.4,272.1,189.5c1.6,2.5,3.2,5.1,4.7,7.7C1129.7,346.3,1150.1,421.5,1127.9,489.2z"/>
<path class="st1" d="M707.3,681.3c0,0,36.9-65.4,92.6-84.3c23.4-7.8,43.6-22.9,57.7-43.1c6.6-9.7,12.3-19.9,17-30.6"/>
<path class="st2" d="M909.6,511.1c-6.3,6.2-35.9,12.5-35.9,12.5s7.2-29.3,13.6-35.5c6.4-6.2,16.5-6,22.6,0.4
	C916.1,494.8,915.9,505,909.6,511.1L909.6,511.1z"/>
<path class="st2" d="M892.8,564.1c-8.7,1.7-36.9-9-36.9-9s22-20.7,30.7-22.4c8.7-1.5,17,4.3,18.5,13
	C906.6,554.2,901.2,562.3,892.8,564.1L892.8,564.1z"/>
<path class="st2" d="M832,621.6c-8.3-2.9-27.3-26.4-27.3-26.4s29.5-6.7,37.8-3.8c8.4,2.9,12.8,12,9.9,20.4S840.4,624.5,832,621.6
	L832,621.6z"/>
<path class="st2" d="M776.2,654.7c-8.7-1.4-31.4-21.4-31.4-21.4s27.9-11.6,36.6-10.2c8.7,1.3,14.8,9.4,13.5,18.2
	s-9.4,14.8-18.2,13.5C776.6,654.7,776.4,654.7,776.2,654.7L776.2,654.7z"/>
<path class="st2" d="M831.3,532.2c0,8.8,16,34.5,16,34.5s16-25.6,16-34.5c0-8.8-7.2-16-16-16S831.3,523.4,831.3,532.2L831.3,532.2z"
	/>
<path class="st2" d="M766.6,571.8c2.6,8.4,25.6,28.1,25.6,28.1s7.6-29.2,5-37.7c-2.6-8.4-11.6-13.1-20.1-10.5
	S763.9,563.3,766.6,571.8z"/>
<path class="st3" d="M708.9,618.8c1.2,8.8,20.5,32,20.5,32s12.4-27.5,11.3-36.3c-1-8.8-9-15.1-17.7-14c-8.8,1-15.1,9-14,17.7
	C708.8,618.4,708.8,618.6,708.9,618.8L708.9,618.8z"/>
<path class="st4" d="M708.9,618.8c1.2,8.8,20.5,32,20.5,32s12.4-27.5,11.3-36.3c-1-8.8-9-15.1-17.7-14c-8.8,1-15.1,9-14,17.7
	C708.8,618.4,708.8,618.6,708.9,618.8L708.9,618.8z"/>
<path class="st1" d="M709.4,680c0,0,7.3-74.8,50.5-114.6c18.2-16.6,30.6-38.6,35.3-62.8c2.1-11.5,3.2-23.2,3.2-34.9"/>
<path class="st5" d="M825.4,442.4c-3.3,8.2-27.7,26-27.7,26s-5.3-29.8-2-38c3.3-8.2,12.6-12.1,20.8-8.8
	C824.7,424.9,828.6,434.2,825.4,442.4L825.4,442.4z"/>
<path class="st5" d="M831.6,497.7c-7.2,5.1-37.4,6.7-37.4,6.7s11.8-27.8,19-32.9c7.2-5.1,17.2-3.4,22.3,3.9S838.9,492.6,831.6,497.7
	L831.6,497.7z"/>
<path class="st5" d="M799.3,574.8c-8.8,0.7-35.7-13-35.7-13s24.2-18.1,33-18.8c8.8-0.5,16.4,6.2,17,15
	C814.1,566.5,807.8,574,799.3,574.8L799.3,574.8z"/>
<path class="st5" d="M761.7,627.7c-8.6,2.2-37.4-6.8-37.4-6.8s20.8-21.9,29.3-24.1c8.6-2.2,17.3,2.9,19.5,11.5
	S770.2,625.6,761.7,627.7L761.7,627.7z"/>
<path class="st5" d="M762.4,493.5c3.6,8.1,28.6,25,28.6,25s4.3-29.9,0.7-38c-3.5-8.1-12.9-11.9-21-8.4c-8.1,3.5-11.9,12.9-8.4,21
	C762.3,493.2,762.4,493.3,762.4,493.5L762.4,493.5z"/>
<path class="st5" d="M719.2,555.8c5.8,6.6,34.8,15.3,34.8,15.3s-4.9-29.8-10.7-36.5c-5.5-6.9-15.6-8-22.5-2.4
	c-6.9,5.5-8,15.6-2.4,22.5C718.6,555.2,718.9,555.5,719.2,555.8L719.2,555.8z"/>
<path class="st3" d="M685.6,622.2c4.6,7.5,31.7,21,31.7,21s0.2-30.2-4.4-37.7c-4.9-7.4-14.8-9.4-22.2-4.6
	C683.6,605.6,681.4,614.9,685.6,622.2z"/>
<linearGradient id="SVGID_1_" gradientUnits="userSpaceOnUse" x1="567.3045" y1="-96.8851" x2="567.3045" y2="377.6015" gradientTransform="matrix(1 0 0 -1 -31.44 608.9)">
	<stop  offset="0" style="stop-color:#808080;stop-opacity:0.25"/>
	<stop  offset="0.54" style="stop-color:#808080;stop-opacity:0.12"/>
	<stop  offset="1" style="stop-color:#808080;stop-opacity:0.1"/>
</linearGradient>
<path class="st6" d="M747.9,504.2c0,0-8.7,58.3-5.6,69.7s-5.5,100.3-5.5,100.3s2.5,18.8-6.6,31.5c-1.1,0-2.1,0.1-3.2,0.1
	c-0.3,0-0.6,0-0.9,0c-4.5,0.1-8.9,0.1-13.4,0c-26.6-0.3-53.1-2.4-79.3-6.4l-3.8-0.6l-4.9-0.8l0,0c-17.1-2.8-34-6.5-50.7-10.9
	c-5.4-1.4-10.9-3-16.3-4.6c-2-0.6-3.9-1.2-5.9-1.8c-12.5-3.9-24.9-8.2-37.2-13c-0.9-0.3-1.8-0.7-2.7-1.1
	c-22.7-9-44.7-19.5-65.9-31.6l-2.1-1.2l-1.3-0.7l-2.1-1.2c-1.5-0.9-3-1.7-4.5-2.6c-2.2-1.3-4.4-2.6-6.5-4l-1.9-1.2
	c-3.1-2-6.2-3.9-9.4-5.8c-1.4-0.8-2.7-1.6-4.1-2.5h-0.1c-6.6-4-13.5-7.4-20.8-10c-2.7-0.9-5.4-1.7-8.1-2.3c-0.9-0.2-1.7-0.4-2.6-0.6
	l0,0l-2.2-0.4c-0.4-0.1-0.9-0.2-1.3-0.2l12.2-29.7l0.3-0.6h-0.4c-16.1-1.2-31.8-5.3-47.4-9.3c0,0,0,0-0.1,0l0.3-0.6
	c0.1-0.2,0.2-0.4,0.3-0.5l-0.5-0.1h-0.1c1.4-3,2.8-5.9,4.2-8.9l0.5,0.1l0.5-1c0.5-1.1,1-2.2,1.5-3.3c6.9-15.1,12.8-30.5,14.8-46.8
	c0.5-4.5,0.7-9,0.5-13.5c-0.3-8.9-2.2-17.6-5.6-25.8c-0.1-0.3-0.3-0.6-0.4-0.9c-3.2-7.3-8-13.8-14-19c-4-3.4-8.5-6.2-11.7-10.2
	c-4.2-5.1-6-11.7-7.8-18.1c-2.1-7.9-4.3-16-4.4-24.1v-0.3c0-0.3,0-0.6,0-0.9s0-0.7,0-1c0-2.3,0.2-4.7,0.7-7l0.1,1
	c0-0.2,0.1-0.5,0.1-0.7c3.2-14.7,15.3-25.8,27.7-34.5c9.2-6.5,19-12.3,27.2-19.8l0.1-0.1c2.8-2.6,5.5-5.4,7.8-8.4
	c9.8-12.9,13.4-29.6,13.6-45.8c0-0.3,0-0.7,0-1c0,0.1,0,0.2,0,0.3c0-0.2,0-0.4,0-0.6c0.1-4.8-0.1-9.6,0.6-14.3v1.4
	c0.2-1.5,0.6-3,1-4.4c2.2-7.3,7.2-13.3,14-16.8c0.3-0.2,0.6-0.3,1-0.5c11.9-5.8,27.9-5.2,40.8-5.3c23.4-0.1,46.2,3.7,69.8,2.8
	c21.6-0.8,43.5-2.4,64.7,1.5s42.4,14.2,54,32.3c3.8,5.6,6.2,12.1,6.9,18.9c0,0.1,0,0.2,0,0.4c0-0.1,0-0.3,0-0.4c0,0.7,0,1.4,0,2.1
	c0.2,11.9-5.2,24.1-1.3,35.4c6.2,18.1,32.3,22.8,39.7,40.4c0.7,1.8,1.3,3.6,1.5,5.5c0-0.1,0.1-0.3,0.1-0.4c0.1,1.2,0.2,2.4,0.2,3.6
	c0.2,7.6-2.9,15.5-7.9,21.8c2.4,0.6,5.5,1.5,9.1,2.8l-0.8,0.2C716.7,406.9,759.3,432.9,747.9,504.2z"/>
<path class="st7" d="M400.2,254.2c-1.9,6-1.6,12.4-1.6,18.7c-0.2,16.2-3.7,32.9-13.5,45.8c-9.1,12-22.6,19.6-34.9,28.3
	s-24.3,19.8-27.4,34.5c-2.4,11,0.6,22.3,3.5,33.1c1.7,6.4,3.5,13,7.7,18.1c3.3,4,7.7,6.8,11.6,10.2c16.4,14.2,21.9,37.8,19.4,59.3
	c-2.5,21.5-12,41.5-21.3,61.1c17.2,4.5,34.5,9,52.3,9.6s36.2-3,50.6-13.4c27-19.5,33.3-57,54.4-82.8c7.9-9.7,17.9-17.5,28.2-24.6
	c9.9-6.8,20.4-13.1,32-16.5s23.7-3.8,35.5-5.6c16-2.4,31.4-7.4,46.7-12.6c12.2-4.2,24.6-8.7,34-17.5s14.9-22.9,10-34.8
	c-7.3-17.7-33.2-22.3-39.4-40.4c-4.1-11.9,2.2-24.9,1.2-37.5c-0.7-6.7-3.1-13.2-6.8-18.9c-11.5-18.1-32.5-28.4-53.5-32.3
	s-42.7-2.3-64.2-1.5c-23.3,0.9-46-2.9-69.1-2.8C435.4,231.7,407.8,230.2,400.2,254.2z"/>
<g class="st8">
	<path d="M647.1,306c0.9-6.3,2.3-12.7,2-19C648.2,293.5,646.8,299.9,647.1,306z"/>
	<path d="M399.1,261.8c0-1.5,0-3,0-4.5c-0.8,4.7-0.6,9.5-0.6,14.3c0,0.2,0,0.4,0,0.6C398.9,268.7,399.1,265.2,399.1,261.8z"/>
	<path d="M677.8,388.7c-9.4,8.8-21.8,13.3-34,17.5c-15.3,5.2-30.7,10.2-46.7,12.7c-11.9,1.8-24,2.2-35.5,5.6s-22.1,9.7-32,16.5
		c-10.3,7.1-20.2,15-28.2,24.6c-21.1,25.7-27.5,63.2-54.4,82.8c-14.4,10.4-32.8,14-50.5,13.4c-16.5-0.6-32.7-4.5-48.7-8.7
		c-1.4,3-2.8,5.9-4.2,8.9c17.2,4.5,34.5,9,52.3,9.6s36.2-3,50.6-13.4c27-19.5,33.3-57,54.4-82.8c7.9-9.7,17.8-17.5,28.2-24.6
		c9.9-6.8,20.4-13.2,32-16.6s23.7-3.8,35.5-5.6c16-2.4,31.4-7.4,46.7-12.6c12.1-4.1,24.6-8.7,34-17.5c7.7-7.3,12.8-18.2,11.6-28.4
		C687.1,377.3,683.2,383.7,677.8,388.7z"/>
	<path d="M365.5,491.4v-0.2c2.5-21.5-3-45.2-19.4-59.3c-3.9-3.4-8.4-6.2-11.6-10.2c-4.2-5.1-6-11.7-7.7-18.1
		c-2-7.3-3.9-14.8-4.3-22.3c-2,10.6,0.8,21.6,3.6,32.1c1.7,6.4,3.5,13,7.7,18.1c3.3,4,7.7,6.8,11.6,10.2
		C359.5,453.7,365.6,472.7,365.5,491.4z"/>
</g>
<path class="st9" d="M744.1,504.8L634,614H487.7l-26.1-59.1l-8.1-62l14.7-68.5c0,0,72.6,7.3,44.4-34.3s52.6-73.8,52.6-73.8
	s21.9,49.5,37.4,56.5s71.9,21.4,71.9,21.4s0.8,0.1,2.2,0.4c4.2,0.9,8.3,2.1,12.3,3.6C712.6,407,755.6,432.9,744.1,504.8z"/>
<path class="st10" d="M650.8,500.7c0,0,5.7,11,20.4,16.7C685.8,523.1,650.8,500.7,650.8,500.7z"/>
<path class="st10" d="M556.6,510.5c0,0-21.6,36.7-17.5,66.4L556.6,510.5z"/>
<path class="st10" d="M687.8,398.3c-9.7,2.2-22.3,9.1-28,29c-6,21.2-8.9,43.2-8.6,65.2l3.7,44h-10.2v-66.5c-0.8-7.8,11-48.1,11-48.1
	c1.8-7.3,13.3-20.4,19.7-27.3C679.6,395.6,683.7,396.8,687.8,398.3z"/>
<path class="st10" d="M690.2,398.3c-9.7,2.2-22.3,9.1-28,29c-6,21.2-8.9,43.2-8.6,65.2l3.7,44h-10.3v-66.5c-0.8-7.8,11-48.1,11-48.1
	c1.8-7.3,13.3-20.4,19.7-27.3C682,395.6,686.2,396.8,690.2,398.3z"/>
<path class="st11" d="M689,398.3c-9.7,2.2-22.3,9.1-28,29c-6,21.2-8.9,43.2-8.6,65.2l3.7,44h-10.2v-66.5c-0.8-7.8,11-48.1,11-48.1
	c1.8-7.3,13.3-20.4,19.7-27.3C680.8,395.6,684.9,396.8,689,398.3z"/>
<path class="st11" d="M482,493.3c0,0,13.6,73.6,84.9,85l-3.3,35.7h-75.9l-34.3-121.1L482,493.3z"/>
<path class="st11" d="M513.5,650.9l-1.5,15.8c-22.7-9-44.7-19.5-65.9-31.6L444,634l-1.3-0.7l-2.1-1.2c-1.5-0.9-3-1.7-4.5-2.6
	c-2.2-1.3-4.4-2.6-6.5-4l-1.9-1.2c-3.1-2-6.2-3.9-9.4-5.8c-1.4-0.8-2.7-1.6-4.1-2.5l-0.1-0.2l-8.8-31.1l-0.3-0.9l-3-10.8l-0.4-1.3
	l-1.7-6.2l19.4,0.3h2.3h0.7l6.1,0.2c0,0,0.1,0.5,0.3,1.3l0.3,1.2c1.2,4.8,2.7,9.6,4.5,14.2c0.4,1.1,0.8,2.1,1.3,3.3
	c1.8,4.4,3.9,8.7,6.2,12.9c2,3.6,4.1,7,6.5,10.4c1.8,2.7,3.9,5.3,6,7.9c0.8,1,1.6,1.9,2.5,2.8c0.8,0.9,1.6,1.7,2.4,2.6
	c1.6,1.7,3.4,3.4,5.2,5l0.6,0.5c0.7,0.7,1.5,1.3,2.3,2c0.5,0.5,1.1,0.9,1.7,1.3C481.3,641.8,496.9,648.5,513.5,650.9z"/>
<path class="st11" d="M633.4,699.4l2.6-27.7l0.6-6.6c-8.1-1.3-16.1-3.5-23.7-6.8l0,0c-2.2-0.9-4.3-1.9-6.3-3c-2.4-1.3-4.8-2.6-7-4
	c-4.3-2.7-8.3-5.7-12.1-9c-9.1-8.1-16.7-17.7-22.7-28.3c-0.4-0.7-0.8-1.5-1.2-2.2c-1.2-2.2-2.2-4.3-3.2-6.4c-0.5-1.1-1-2.2-1.5-3.2
	c-3.2-7.1-5.6-14.6-7.3-22.2l-21.6-0.3l-5.9-0.1h-1.1l1.3,4.6l8.4,29.8l6.7,23.5l0.5,1.8l1.4,5.1l0,0l2.5,8.9l0.5,1.8l0.3,1.2
	l1.7,6.2l5.2,18.3c2,0.6,3.9,1.2,5.9,1.8c5.4,1.6,10.8,3.1,16.3,4.6c16.7,4.4,33.6,8,50.7,10.9l0,0l4.9,0.8L633.4,699.4z"/>
<path class="st9" d="M633.4,699.4c26.3,4,52.8,6.1,79.3,6.4c4.5,0,8.9,0,13.4,0c0.3,0,0.6,0,0.9,0c8.6-12.7,6.2-31,6.2-31
	s8.5-88.9,5.5-100.3s5.5-69.7,5.5-69.7l-11-18.3c-46.1-59.9-65.7,21.6-65.7,21.6l-0.1,3.7l-0.1,3.9l-0.9,23.3l-1.6,44.7l-2.5,68.3
	c0,0-28.3,1.8-55.5,3.4c-7.1,0.4-14.1,0.8-20.6,1.2l-6.5,0.4l-3.7,0.2c-4.7,0.2-8.7,0.4-11.8,0.5l0,0l-2.9,0.1
	c-5.4,0-10.8-0.4-16.2-1.3l-2-0.3c-18-2.8-37.7-8.2-37.7-8.2s-15.5-14-37-16.5c-8.2-1-16.4-0.1-24.2,2.6l2.1,1.2
	c21.2,12.1,43.2,22.6,65.9,31.6c0.9,0.4,1.8,0.7,2.7,1.1c12.2,4.8,24.6,9.1,37.2,13c2,0.6,3.9,1.2,5.9,1.8
	c5.4,1.6,10.8,3.1,16.3,4.6c16.7,4.4,33.6,8,50.7,10.9l0,0l4.9,0.8L633.4,699.4z"/>
<path class="st9" d="M476.3,509.6l-11.2,19.1l-1,1.7l0,0l-0.9,1.5l-0.1,0.1l-3.7,6.3L449,556.3l0,0l-1.4,2.4l-14,23.9l-6,10.4
	l-2.9,5l0,0l-10.4,17.7l0,0.1c-6.6-4-13.5-7.4-20.8-10c-2.7-0.9-5.4-1.7-8.1-2.3c-0.9-0.2-1.7-0.4-2.6-0.6l0,0l-2.2-0.4
	c-0.4-0.1-0.9-0.2-1.3-0.2H379l12.1-29.7l0.3-0.6l0.3-0.7l3.9-9.6l17.4-42.6l0.9-2.3l29.4-72.2l14.4,28.3l10.2,20L476.3,509.6z"/>
<path class="st12" d="M603.8,651.9c-5.4-1.6-17,0.3-28.5,2.9c-15.7,3.5-31.3,8.6-31.3,8.6s-10.6-71.9,0-61.8
	c0.9,0.9,1.9,1.6,2.9,2.2c10.4,6.2,23.6-2.2,23.6-2.2S616.6,655.6,603.8,651.9z"/>
<path class="st12" d="M701.7,600.6c0,39.4-31.9,71.4-71.4,71.4c-39.4,0-71.4-31.9-71.4-71.4c0-35.4,25.9-65.4,60.9-70.6
	c3.5-0.5,7-0.8,10.5-0.8C669.8,529.2,701.7,561.2,701.7,600.6C701.7,600.6,701.7,600.6,701.7,600.6z"/>
<path class="st13" d="M441.5,582.9l-0.6-4.6c0,0,17.7-17.7,24.2-15.6s23.9,14.4,24.8,25.4c0,0-11.6-12.2-17.4-0.9
	S441.5,582.9,441.5,582.9z"/>
<path class="st12" d="M541.2,542.3c0,0-16.2-3.3-15.1,0c0.7,2.7,1.1,5.5,1.3,8.3c0,0,9.8-1,13.8-1.9S541.2,542.3,541.2,542.3z"/>
<path class="st12" d="M539.9,552.3c0,0-16.2-3.3-15.1,0c0.7,2.7,1.1,5.5,1.3,8.3c0,0,9.8-1,13.8-1.9S539.9,552.3,539.9,552.3z"/>
<path class="st7" d="M410,469.9c6.8,14.2,3.7,30.8,2.9,46.4c-0.4,7.6,1,17,8.1,19.6c1.9,0.7,4.4,1,5.3,2.8c0.4,1,0.5,2.1,0.3,3.1
	c-1,7.7-4.8,14.7-6.8,22.1c-5.5,21.3,6.5,45.8,26.8,54.6c1.4,0.6,3,1.2,4.5,0.7c1.2-0.5,2.3-1.4,2.9-2.6
	c11.6-16,11.8-37.7,21.5-54.9c7.7-13.8,21.1-23.9,27.5-38.3c5.2-11.4,5.4-24.4,7.9-36.7c4-19.5,13.8-38,13.8-57.8
	c0.2-2.7-0.3-5.5-1.5-8c-1.6-3-4.5-4.9-7.3-6.7l-37.7-24.4c-2.9-2-6-3.8-9.2-5.3c-11.1-4.7-24.2-2.5-34.8,3.1
	c-8.8,4.6-16.2,11.4-23.2,18.4c-5.6,5.7-13.3,10.4-18.5,16.3C379.3,437.7,403.9,457,410,469.9z"/>
<g class="st8">
	<path d="M410,460.1c-4.2-8.9-17.2-20.8-20.5-32.4c-4.9,14.3,15.1,30.8,20.5,42.2c2.5,5.6,3.9,11.6,4.1,17.8
		C414.6,478.1,414.1,468.6,410,460.1z"/>
	<path d="M425.4,537.7c0.5-1.8,0.9-3.7,1.2-5.5c0.2-1.1,0.1-2.2-0.3-3.2c-0.9-1.8-3.4-2.1-5.3-2.8c-5.1-1.9-7.3-7.3-7.9-13
		c-0.1,1-0.1,2.1-0.2,3.1c-0.4,7.6,1,17,8.1,19.6C422.5,536.5,424.2,536.7,425.4,537.7z"/>
	<path d="M510.9,477c-2.5,12.3-2.8,25.2-7.9,36.7c-6.5,14.4-19.8,24.6-27.5,38.3c-9.7,17.2-9.9,38.9-21.5,54.9
		c-1.2,2.5-4.2,3.5-6.7,2.3c-0.3-0.1-0.5-0.3-0.7-0.4c-15.4-6.6-26-22.4-27.8-38.9c-2.2,19.8,9.4,40.8,27.8,48.7
		c1.4,0.6,3,1.2,4.5,0.7c1.2-0.5,2.3-1.4,2.9-2.6c11.6-16,11.8-37.7,21.5-54.9c7.7-13.8,21.1-23.9,27.5-38.3
		c5.2-11.4,5.4-24.4,7.9-36.7c4-19.5,13.8-38,13.8-57.8c0-1.4-0.1-2.8-0.3-4.2C522.9,442.5,514.6,459.3,510.9,477z"/>
</g>
<path class="st14" d="M701.7,600.6c0,39.4-32,71.4-71.4,71.4c-18.8,0-36.8-7.4-50.2-20.6c0-0.2,0-0.4,0-0.6c0.1-1.1,1.1-2,2-2.7
	c13-10.5,16.2-31.3,6.9-45.2c-1.9-2.8-4.2-5.4-5.1-8.7c-2.4-8.1,4.6-15.9,6.2-24.2c1-5.5-0.2-11.7,2.8-16.4
	c3.9-6,12.6-6.5,17.7-11.4c4.3-4.2,6.5-8.6,9.3-12.1c3.5-0.5,7-0.8,10.5-0.8C669.8,529.3,701.7,561.2,701.7,600.6z"/>
<path class="st12" d="M472.4,587.2l-1.7,7.7l-7.5,34.8c0,0-2.9-2.1-6.9-5.2c-7.6-5.8-19.4-15-24.6-20.2c-8-8,9.2-26,9.2-26
	s1.3,0.8,3.3,1.8c3,1.5,7.6,3.4,12,3.7c4,0.4,7.9,1.1,11.8,2.1C470.6,586.7,472.4,587.2,472.4,587.2z"/>
<polygon class="st12" points="489.8,562.6 482.3,583.9 479.7,591.3 470.7,594.9 462.2,598.3 456.5,600.6 441.5,585.7 441.5,582.9 
	444.2,580.2 469.7,554 "/>
<circle class="st10" cx="500.5" cy="342" r="78.7"/>
<circle class="st9" cx="500.5" cy="339.5" r="78.7"/>
<path class="st10" d="M575.3,654.8c-15.7,3.5-31.3,8.6-31.3,8.6s-10.6-71.9,0-61.8c0.9,0.9,1.9,1.6,2.9,2.2
	c5.5,11.7,17.9,31.5,17.9,31.5C562.6,637.9,571.4,649.8,575.3,654.8z"/>
<path class="st10" d="M482.3,583.9l-2.6,7.4l-9,3.6l-7.5,34.8c0,0-2.9-2.1-6.9-5.2c-1.1-6.9,2.3-17.5,6-26.2
	c2.2-5.2,4.4-9.7,5.8-12.3c0.8-1.6,1.3-2.5,1.3-2.5S472.3,587.2,482.3,583.9z"/>
<path class="st15" d="M575.8,657.1l-1.9,30.1c-5.4-1.4-10.9-3-16.3-4.6c-2-0.6-3.9-1.2-5.9-1.8c-12.5-3.9-24.9-8.2-37.2-13
	c-0.9-0.3-1.8-0.7-2.7-1.1c-22.7-9-44.7-19.5-65.9-31.6L444,634l-1.3-0.7l-2.1-1.2c-1.5-0.9-3-1.7-4.5-2.6
	c7.4-1.8,14.9-2.8,22.5-3.1h0.5c-0.4-1.2-0.6-2.4-0.6-3.7c-0.3-7.2,3.2-17.3,6.7-25.4c1-2.3,2-4.4,2.8-6.3c0.8-1.7,1.5-3.1,2.1-4.3
	c0.4-0.8,0.7-1.5,1-2c0.4-0.7,0.6-1.2,0.6-1.2c0.6,0.6,1.4,1.1,2.3,1.3c0.3,0.1,0.5,0.2,0.8,0.2c0.5,0.1,0.9,0.2,1.4,0.2
	c1.1,0.1,2.1,0.1,3.2-0.1c0.9-0.1,1.7-0.3,2.6-0.5c0.8-0.2,1.5-0.4,2.4-0.7c0.6-0.2,1.3-0.4,2-0.7s1.1-0.4,1.7-0.7
	c3.8-1.6,7.4-3.5,10.9-5.8c15.4-9.5,22.4-2.3,25.2,2.7c0.7,1.2,1.2,2.5,1.6,3.8c0,0,17.7,6.9,17.3,12.8c-0.1,1.2,0.7,3.4,2,6.3
	c1.5,3.3,3.6,7.3,5.9,11.5c5.8,10.4,12.6,21.2,12.6,21.2c-2.2,2.7,6.7,14.7,10.5,19.7l0.1,0.2l1.3,1.7
	C575.7,657,575.8,657.1,575.8,657.1z"/>
<path class="st10" d="M465.1,528.8l-1,1.7l0,0l-0.9,1.5l-0.1,0.1l-3.7,6.3L449,556.3l0,0l-1.4,2.4l-14,23.9l-6,10.4l-2.9,5l0,0
	l-10.4,17.7l0,0.1c-6.6-4-13.5-7.4-20.8-10c-2.7-0.9-5.4-1.7-8.1-2.3c-0.9-0.2-1.7-0.4-2.6-0.6l0,0l-2.2-0.4
	c2.8-1.2,5.8-1.8,8.9-1.7c0,0,8.1-9,15.8-17.2c4.6-4.9,9.1-9.6,11.5-11.7c0.2-0.2,0.4-0.4,0.6-0.6c0.5-0.5,1-1,1.4-1.5l0,0l0.1-0.1
	c1.1-1.3,2-2.6,2.9-4.1c0.2-0.3,0.4-0.6,0.5-0.9c1.3-2.3,2.7-4.4,4.2-6.5c5.6-8,12.8-14.9,21.1-20c3.2-2,6.9-4.1,11-6.3
	c1.7-0.9,3.4-1.7,5.2-2.6L465.1,528.8z"/>
<path class="st9" d="M536.9,559.3c0,3-0.3,6-1,8.9c-0.8,3.4-2.2,6.7-4.2,9.6c-0.5,0.7-1,1.4-1.5,2c-1.2,1.5-2.7,2.7-4.3,3.7
	c-0.4,0.3-0.9,0.5-1.4,0.8c-9.3,4.9-23,3.3-35.7-0.2c-0.8-0.2-1.6-0.4-2.3-0.7c-1.2-0.3-2.4-0.7-3.5-1.1c-1.6-0.5-3.2-1-4.7-1.6
	c-2.2-0.8-4.4-1.6-6.4-2.5l-2.8-1.2l-2.5-1.1c-6.9-3-11.5-5.5-11.5-5.5s-2.2,4.7-5.7,11.9c-0.6,1.2-1.2,2.5-1.9,3.9
	c-0.6,1.2-1.2,2.4-1.8,3.6c-1.4,2.8-2.9,5.9-4.5,9c-0.9,1.8-1.8,3.5-2.7,5.3c-0.7,1.4-1.5,2.9-2.2,4.3l-1.4,2.6l0,0
	c-2.3,4.5-4.7,8.9-7.1,13.2c-3.1-2-6.2-3.9-9.4-5.8c-1.4-0.8-2.7-1.6-4.1-2.5h-0.1c-6.6-4-13.5-7.4-20.8-10
	c-2.7-0.9-5.4-1.7-8.1-2.3c-0.9-0.2-1.7-0.4-2.6-0.6c2.2-0.7,4.4-0.9,6.7-0.8c0,0,8.3-9.3,16-17.5c4.5-4.8,8.9-9.3,11.3-11.4
	c0.7-0.6,1.3-1.2,1.9-1.9l0.1-0.1l0.1-0.2c0.4-0.4,0.7-0.9,1.1-1.4c0.8-1.1,1.6-2.3,2.2-3.5l0.2-0.3c1.5-2.7,3.2-5.3,5.1-7.8
	c5.4-7.4,12.2-13.7,20-18.5c3.3-2,7-4.2,11.1-6.3c1.7-0.9,3.5-1.8,5.3-2.7l0,0l0.3-0.1c2.4-1.2,4.9-2.3,7.5-3.4
	c0.3-0.2,0.6-0.3,0.9-0.4c2.9-1.3,6-2.5,9.2-3.8c3-1.2,6.2-2.1,9.4-2.7c2.8-0.5,5.7-0.7,8.5-0.6c1.5,0.1,3,0.2,4.5,0.5l0,0
	c12.7,2,22.5,10.5,27.8,21.1c1.4,2.8,2.5,5.7,3.3,8.7c0.2,0.7,0.3,1.3,0.5,2C536.5,554.2,536.8,556.7,536.9,559.3z"/>
<path class="st10" d="M575.8,657.1l-1.9,30.1c-5.4-1.4-10.9-3-16.3-4.6c-2-0.6-3.9-1.2-5.9-1.8c-12.5-3.9-24.9-8.2-37.2-13
	c-0.9-0.3-1.8-0.7-2.7-1.1c-22.7-9-44.7-19.5-65.9-31.6L444,634l-1.3-0.7l-2.1-1.2c6.4-2.6,13.3-4,20.2-4.1c0.9,0,1.8,0,2.7,0h0.7
	c23.3,1.4,40.3,17,40.3,17s19.9,5.5,38,8.2l1.5,0.2c5.4,0.9,10.9,1.3,16.4,1.3c3-0.1,7.7,0,13.7,0.2l0.1,0.2l1.3,1.7
	C575.7,657,575.8,657.1,575.8,657.1z"/>
<path class="st10" d="M668.8,658.5C668.6,658.1,669.3,658.5,668.8,658.5z"/>
<path class="st16" d="M669.4,660.3c0,0-0.1-0.1-0.1-0.1c0-0.1,0.2,0,0.2,0S669.6,660.3,669.4,660.3z"/>
<path class="st16" d="M633.4,699.4c26.3,4,52.8,6.1,79.3,6.4c4.5,0,8.9,0,13.4,0l0.1-0.1l-47.4-37.4c-6.3-5-5-1.2-9.4-7.9l0,0
	c-6.2,0.4-31.5-0.8-56.4-2l0,0c-9-0.4-18-0.8-26-1.2l-7.4-0.3l-4-0.1c-2.7-0.1-5.2-0.2-7.4-0.2l0,0c-2.9,0-5.3-0.1-7.1,0
	c-5.5,0-11-0.5-16.5-1.4l-1.8-0.3c-17.9-2.8-37.6-8.2-37.6-8.2s-16.3-14.8-38.6-16.7c-8.1-0.7-16.2,0.4-23.8,3.3l1.3,0.7l2.1,1.2
	c21.2,12.1,43.2,22.6,65.9,31.6c0.9,0.4,1.8,0.7,2.7,1.1c12.2,4.8,24.6,9.1,37.2,13c2,0.6,3.9,1.2,5.9,1.8
	c5.4,1.6,10.8,3.1,16.3,4.6c16.7,4.4,33.6,8,50.7,10.9l0,0l4.9,0.8L633.4,699.4z"/>
<path class="st10" d="M508.5,632c0,0,30.2,2,35.1,8.2L508.5,632z"/>
<path class="st10" d="M428,337.7c3.7-3.2,9.2-2.3,14.1-2c11.1,0.5,22-3.5,30.1-11.2c4.3-4.1,7.9-9.4,13.2-12.1
	c7.6-3.9,16.8-1.7,24.5,2s14.5,9,22.5,11.9c1.7,0.7,3.5,1,5.3,0.8c6.1-1,6.8-9.3,7.5-15.5c2-17.5,16.5-2.5,34-3.7
	c1.8-4.5,0.6-39.8-3.2-43s-8.6-4.6-13.4-5.9c-21.8-6.1-43.9-11.3-66.2-15.6c-8.9-1.7-18-3.3-26.9-1.9c-7.7,1.2-14.8,4.5-21.8,7.9
	c-10.7,5.2-21.6,10.9-29.5,19.8c-16,17.9-16.4,43.6-14.9,66.2c0.5,7-1.2,25.2,8.3,25.4C422.8,361.1,422,342.9,428,337.7z"/>
<path class="st7" d="M428,336.5c3.7-3.2,9.2-2.3,14.1-2c11.1,0.5,22-3.5,30.1-11.2c4.3-4.1,7.9-9.4,13.2-12.1
	c7.6-3.9,16.8-1.7,24.5,2s14.5,9,22.5,11.9c1.7,0.7,3.5,1,5.3,0.8c6.1-1,6.8-9.3,7.5-15.5c2-17.5,16.5-2.5,34-3.7
	c1.8-4.6,0.6-39.8-3.2-43s-8.6-4.6-13.4-5.9c-21.8-6.1-43.9-11.3-66.2-15.6c-8.9-1.7-18-3.3-26.9-1.9c-7.7,1.2-14.8,4.5-21.8,7.9
	c-10.7,5.2-21.6,10.9-29.5,19.8c-16,17.9-16.4,43.6-14.9,66.3c0.5,6.9-1.2,25.1,8.3,25.4C422.8,359.8,422,341.7,428,336.5z"/>
<path class="st10" d="M534.5,317.9c-1.8,0.2-3.6-0.1-5.3-0.8c-8-2.8-14.9-8.1-22.5-11.9s-16.9-5.9-24.5-2
	c-5.4,2.7-8.9,7.9-13.2,12.1c-8.1,7.7-19,11.7-30.1,11.2c-4.9-0.3-10.5-1.2-14.1,2c-5.9,5.2-5.2,23.4-16.2,23.1
	c-1.7,0-3.2-0.7-4.4-2c0.9,5,2.9,9.2,7.4,9.3c11,0.3,10.3-17.9,16.3-23.1c3.7-3.2,9.3-2.3,14.1-2c11.1,0.5,22-3.5,30.1-11.2
	c4.3-4.1,7.9-9.4,13.2-12.1c7.6-3.9,16.8-1.7,24.4,2s14.5,9.1,22.5,11.9c1.7,0.7,3.5,1,5.3,0.8c6.1-1,6.8-9.3,7.5-15.5
	C547,292.3,540.6,316.9,534.5,317.9z"/>
<path class="st10" d="M678.2,660.5c0,0,5.7,11,20.4,16.7S678.2,660.5,678.2,660.5z"/>
<path class="st10" d="M629.6,698.8l-4.9-0.8l0,0l-7.3-7.7C617.3,690.3,625.6,691.8,629.6,698.8z"/>
<polygon class="st10" points="556.6,606 559.5,608.5 559.1,604 "/>
<path class="st17" d="M802.3,301.9c0,0-43.3-2.6-38.2,27.7c0,0-1,5.4,3.8,7.8c0,0,0.1-2.2,4.4-1.5c1.6,0.3,3.1,0.3,4.7,0.2
	c2.1-0.1,4.1-1,5.8-2.4l0,0c0,0,12.2-5,16.9-24.9c0,0,3.5-4.3,3.4-5.5l-7.3,3.1c0,0,2.5,5.3,0.5,9.6c0,0-0.2-9.5-1.6-9.2
	c-0.3,0-3.8,1.8-3.8,1.8s4.3,9.2,1.1,15.9c0,0,1.2-11.3-2.4-15.2l-5.1,3c0,0,5,9.5,1.6,17.2c0,0,0.9-11.9-2.7-16.5l-4.7,3.6
	c0,0,4.7,9.4,1.8,15.8c0,0-0.4-13.8-2.8-14.9c0,0-4.1,3.6-4.7,5.1c0,0,3.2,6.8,1.2,10.4c0,0-1.2-9.2-2.2-9.2c0,0-4.1,6.1-4.5,10.3
	c0,0,0.2-6.2,3.5-10.9c-2.3,0.4-4.5,1.6-6.2,3.2c0,0,0.6-4.3,7.2-4.7c0,0,3.3-4.6,4.3-4.9c0,0-6.5-0.5-10.5,1.2
	c0,0,3.5-4.1,11.7-2.2l4.6-3.8c0,0-8.6-1.2-12.3,0.1c0,0,4.2-3.6,13.5-1l5-3c0,0-7.3-1.6-11.7-1c0,0,4.6-2.5,13.2,0.2l3.6-1.6
	c0,0-5.4-1.1-7-1.2s-1.7-0.6-1.7-0.6c3.4-0.6,6.9-0.2,10.1,1.1C794.8,305.2,802.4,302.3,802.3,301.9z"/>
<path class="st17" d="M187.7,222c0,0-43.3-2.6-38.2,27.7c0,0-1,5.4,3.8,7.8c0,0,0.1-2.3,4.4-1.5c1.6,0.3,3.1,0.3,4.7,0.2
	c2.1-0.1,4.1-1,5.8-2.4l0,0c0,0,12.2-5,16.9-24.9c0,0,3.5-4.3,3.4-5.5l-7.3,3.1c0,0,2.5,5.3,0.5,9.6c0,0-0.2-9.5-1.6-9.2
	c-0.3,0-3.8,1.8-3.8,1.8s4.3,9.2,1.1,15.9c0,0,1.2-11.3-2.4-15.2l-5.1,3c0,0,5,9.5,1.6,17.2c0,0,0.9-11.9-2.7-16.5l-4.6,3.6
	c0,0,4.7,9.3,1.8,15.8c0,0-0.4-13.8-2.9-14.9c0,0-4.1,3.6-4.7,5.1c0,0,3.2,6.8,1.2,10.4c0,0-1.2-9.2-2.2-9.2c0,0-4.1,6.1-4.5,10.3
	c0,0,0.2-6.2,3.5-10.9c-2.3,0.4-4.5,1.6-6.2,3.2c0,0,0.6-4.3,7.2-4.7c0,0,3.4-4.6,4.3-4.9c0,0-6.6-0.5-10.5,1.2
	c0,0,3.5-4.1,11.7-2.2l4.6-3.8c0,0-8.6-1.2-12.3,0.1c0,0,4.2-3.6,13.5-1l5-3c0,0-7.4-1.6-11.7-1c0,0,4.6-2.5,13.2,0.2l3.6-1.6
	c0,0-5.4-1.1-7-1.2s-1.7-0.6-1.7-0.6c3.4-0.6,6.9-0.2,10.1,1.1C180.2,225.3,187.8,222.5,187.7,222z"/>
<path class="st17" d="M904.1,179.3c0,0-43.3-2.6-38.2,27.7c0,0-1,5.4,3.8,7.8c0,0,0.1-2.3,4.4-1.5c1.6,0.3,3.1,0.3,4.7,0.2
	c2.1-0.1,4.1-1,5.8-2.4l0,0c0,0,12.2-5,16.9-24.9c0,0,3.5-4.3,3.4-5.5l-7.3,3.1c0,0,2.5,5.3,0.5,9.6c0,0-0.2-9.5-1.6-9.2
	c-0.3,0-3.8,1.8-3.8,1.8s4.3,9.2,1.1,15.9c0,0,1.2-11.3-2.4-15.2l-5.1,3c0,0,5,9.5,1.6,17.2c0,0,0.9-11.9-2.7-16.5l-4.7,3.6
	c0,0,4.7,9.3,1.8,15.8c0,0-0.4-13.8-2.8-14.9c0,0-4.1,3.6-4.7,5.1c0,0,3.2,6.8,1.2,10.4c0,0-1.2-9.2-2.2-9.3c0,0-4.1,6.1-4.5,10.3
	c0,0,0.2-6.2,3.5-10.9c-2.4,0.4-4.5,1.6-6.2,3.2c0,0,0.6-4.3,7.2-4.7c0,0,3.4-4.6,4.3-4.9c0,0-6.5-0.5-10.5,1.2
	c0,0,3.5-4.1,11.7-2.2l4.6-3.8c0,0-8.6-1.2-12.3,0.1c0,0,4.2-3.6,13.5-1l5-3c0,0-7.3-1.6-11.7-1c0,0,4.6-2.5,13.2,0.2l3.6-1.6
	c0,0-5.4-1.1-7-1.2s-1.7-0.6-1.7-0.6c3.4-0.6,6.9-0.2,10.1,1.1C896.6,182.6,904.3,179.7,904.1,179.3z"/>
<path class="st17" d="M743.2,172.1c0,0-29.2,32.1-2.4,47.1c0,0,3.5,4.1,8.5,1.9c0,0-1.7-1.5,1.6-4.4c1.2-1,2.2-2.2,3.1-3.5
	c1.2-1.8,1.8-3.9,1.8-6l0,0c0,0,3.7-12.6-8.8-28.8c0,0-1.2-5.5-2.1-6l-2.2,7.6c0,0,5.7,1.4,7.8,5.6c0,0-7.5-5.8-8.2-4.5
	c-0.2,0.3-1,4.1-1,4.1s9.8,2.4,13,9.1c0,0-8-8-13.3-7.7l-0.9,5.9c0,0,10.5,2,14.4,9.5c0,0-8.7-8.1-14.5-8.3l0,5.9
	c0,0,10.2,2.2,13.4,8.5c0,0-11-8.4-13.3-7.1c0,0,0.2,5.4,1,6.8c0,0,7.3,1.7,8.8,5.5c0,0-7.9-4.8-8.6-4.1c0,0,2.2,7,5.2,9.9
	c0,0-4.7-4-6.3-9.5c-1.1,2.1-1.6,4.5-1.4,6.9c0,0-3-3.2,0.9-8.6c0,0-1.5-5.5-1.2-6.4c0,0-4.5,4.8-5.7,9c0,0-1-5.3,5.6-10.5v-5.9
	c0,0-6.3,6-7.6,9.6c0,0-0.2-5.5,7.7-11.1l0.8-5.8c0,0-5.8,4.7-8.2,8.5c0,0,1-5.2,8.5-10.1l1-3.8c0,0-4.2,3.5-5.3,4.7
	s-1.5,0.9-1.5,0.9c1.7-3,4.2-5.5,7.2-7.2C741.1,180.1,743.6,172.3,743.2,172.1z"/>
<path class="st17" d="M297.4,197c0,0-29.2,32.1-2.4,47.1c0,0,3.5,4.1,8.5,1.9c0,0-1.7-1.5,1.6-4.4c1.2-1,2.2-2.2,3.1-3.5
	c1.2-1.8,1.8-3.9,1.8-6l0,0c0,0,3.7-12.6-8.8-28.8c0,0-1.2-5.4-2.1-6L297,205c0,0,5.7,1.4,7.9,5.6c0,0-7.5-5.8-8.2-4.5
	c-0.1,0.3-1,4.1-1,4.1s9.8,2.4,13,9.1c0,0-8-8-13.3-7.7l-0.9,5.9c0,0,10.5,2,14.4,9.5c0,0-8.7-8.1-14.5-8.3l-0.1,5.9
	c0,0,10.2,2.2,13.4,8.5c0,0-11-8.4-13.4-7.1c0,0,0.2,5.4,1,6.8c0,0,7.3,1.7,8.8,5.5c0,0-7.9-4.8-8.6-4.1c0,0,2.2,7,5.2,9.9
	c0,0-4.7-4-6.3-9.5c-1.1,2.1-1.6,4.5-1.4,6.9c0,0-3-3.2,0.9-8.6c0,0-1.5-5.5-1.1-6.4c0,0-4.5,4.8-5.7,9c0,0-1-5.3,5.6-10.5v-5.9
	c0,0-6.3,6-7.6,9.6c0,0-0.2-5.5,7.7-11.1l0.8-5.8c0,0-5.9,4.7-8.2,8.5c0,0,1-5.2,8.5-10.1l1-3.8c0,0-4.2,3.5-5.3,4.7
	s-1.5,0.9-1.5,0.9c1.7-3,4.2-5.5,7.2-7.2C295.3,204.9,297.9,197.2,297.4,197z"/>
<path class="st17" d="M149.2,352.9c0,0,4.3,43.1,33.4,33.3c0,0,5.4,0.1,7.1-5c0,0-2.2,0.3-2.2-4.1c0-1.6-0.2-3.1-0.5-4.7
	c-0.5-2.1-1.6-3.9-3.3-5.3l0,0c0,0-6.9-11.2-27.3-12.7c0,0-4.8-2.8-5.9-2.5l4.2,6.7c0,0,4.8-3.3,9.4-2.1c0,0-9.3,1.7-8.9,3.1
	c0.1,0.3,2.4,3.5,2.4,3.5s8.4-5.7,15.5-3.6c0,0-11.4,0.6-14.6,4.8l3.8,4.6c0,0,8.6-6.5,16.8-4.3c0,0-11.9,1-15.9,5.3l4.3,4
	c0,0,8.5-6.1,15.3-4.3c0,0-13.6,2.6-14.2,5.2c0,0,4.2,3.5,5.8,3.8c0,0,6.2-4.3,10-2.9c0,0-8.9,2.7-8.8,3.7c0,0,6.7,3,10.9,2.8
	c0,0-6.2,0.8-11.3-1.7c0.8,2.2,2.3,4.2,4.2,5.6c0,0-4.4,0.1-5.8-6.4c0,0-5.1-2.6-5.5-3.4c0,0,0.5,6.5,2.9,10.2c0,0-4.6-2.8-4.1-11.2
	l-4.4-3.9c0,0,0.2,8.7,2.1,12.1c0,0-4.2-3.6-3.1-13.2l-3.8-4.5c0,0-0.4,7.5,0.9,11.8c0,0-3.2-4.2-1.9-13.1l-2.2-3.3
	c0,0-0.2,5.5-0.1,7.1s-0.3,1.7-0.3,1.7c-1.1-3.3-1.3-6.8-0.5-10.2C153.6,359.8,149.6,352.7,149.2,352.9z"/>
</svg>
