<?xml version="1.0" encoding="utf-8"?>
<!-- Generator: Adobe Illustrator 24.0.1, SVG Export Plug-In . SVG Version: 6.00 Build 0)  -->
<svg version="1.1" id="Layer_1" xmlns="http://www.w3.org/2000/svg" xmlns:xlink="http://www.w3.org/1999/xlink" x="0px" y="0px"
	 viewBox="0 0 1096 574.7" style="enable-background:new 0 0 1096 574.7;" xml:space="preserve">
<style type="text/css">
	.st0{opacity:0.1;}
	.st1{fill:#80CBC4;}
	.st2{opacity:0.1;fill:#80CBC4;enable-background:new    ;}
	.st3{opacity:0.1;fill:#6C81BC;stroke:#6C81BC;stroke-miterlimit:10;enable-background:new    ;}
	.st4{opacity:0.1;fill:#559ECA;enable-background:new    ;}
	.st5{opacity:0.1;enable-background:new    ;}
	.st6{fill:#3F3D56;}
	.st7{fill:#8DE5B0;}
	.st8{fill:url(#SVGID_1_);}
	.st9{fill:#2F2E41;}
	.st10{fill:#FBBEBE;}
	.st11{fill:#E8E8F0;}
	.st12{fill:#F86D70;}
</style>
<title>contact us</title>
<g class="st0">
	<ellipse class="st1" cx="479.4" cy="362.1" rx="11.4" ry="14.9"/>
	<path class="st1" d="M488.4,298.4c1.6-2.8,2.4-5.9,2.4-9.1c0-8.2-5.1-14.9-11.4-14.9S468,281,468,289.3c0,3.2,0.8,6.3,2.4,9.1
		c-3.2,5.7-3.2,12.6,0,18.2c-3.2,5.7-3.2,12.6,0,18.2c-1.6,2.8-2.4,5.9-2.4,9.1c0,8.2,5.1,14.9,11.4,14.9s11.4-6.7,11.4-14.9
		c0-3.2-0.8-6.3-2.4-9.1c3.2-5.7,3.2-12.6,0-18.2C491.6,310.9,491.6,304,488.4,298.4L488.4,298.4z"/>
	<ellipse class="st1" cx="479.4" cy="271.1" rx="11.4" ry="14.9"/>
	<ellipse class="st1" cx="479.4" cy="252.9" rx="11.4" ry="14.9"/>
	<path class="st1" d="M436.8,128.2c-1.6-2-3-4.1-4.2-6.2l29.9-4.9l-32.3,0.2c-6.3-13.7-6.6-29.3-1-43.2l43.4,22.5l-40-29.4
		c14.9-26.2,48.2-35.3,74.4-20.4c26.2,14.9,35.3,48.2,20.4,74.4c-1.4,2.5-3,4.8-4.8,7.1c2.4,3.1,4.5,6.4,6.2,9.9l-38.8,20.2
		l41.4-13.9c5.9,17.5,2.6,36.7-8.8,51.2c18.6,23.7,14.5,57.9-9.1,76.6c-23.7,18.6-57.9,14.5-76.6-9.1c-15.6-19.8-15.6-47.6,0-67.4
		C421.3,175.9,421.3,148,436.8,128.2L436.8,128.2z"/>
	<path class="st2" d="M534.2,161.9c0,12.2-4.1,24.1-11.7,33.7c18.6,23.7,14.5,57.9-9.1,76.6c-23.7,18.6-57.9,14.5-76.6-9.1
		c-15.6-19.8-15.6-47.6,0-67.4C429.5,186.4,534.2,155.8,534.2,161.9z"/>
</g>
<g class="st0">
	<ellipse class="st1" cx="612.3" cy="330.3" rx="8.5" ry="11.1"/>
	<path class="st1" d="M619,282.6c1.2-2.1,1.8-4.4,1.8-6.8c0-6.1-3.8-11.1-8.5-11.1s-8.5,5-8.5,11.1c0,2.4,0.6,4.7,1.8,6.8
		c-2.4,4.2-2.4,9.4,0,13.6c-2.4,4.2-2.4,9.4,0,13.6c-1.2,2.1-1.8,4.4-1.8,6.8c0,6.1,3.8,11.1,8.5,11.1s8.5-5,8.5-11.1
		c0-2.4-0.6-4.7-1.8-6.8c2.4-4.2,2.4-9.4,0-13.6C621.4,292,621.4,286.9,619,282.6z"/>
	<ellipse class="st1" cx="612.3" cy="262.2" rx="8.5" ry="11.1"/>
	<ellipse class="st1" cx="612.3" cy="248.6" rx="8.5" ry="11.1"/>
	<path class="st1" d="M580.4,155.5c-1.2-1.5-2.2-3-3.2-4.7l22.3-3.7l-24.2,0.2c-4.7-10.2-5-21.9-0.8-32.3l32.4,16.8l-29.9-22
		c11.2-19.5,36.2-26.2,55.7-15c19.5,11.2,26.2,36.2,15,55.7c-1,1.7-2.1,3.3-3.3,4.9c1.8,2.3,3.4,4.8,4.7,7.4l-29,15.1l30.9-10.4
		c4.4,13,1.9,27.4-6.6,38.3c13.9,17.7,10.9,43.3-6.8,57.2c-17.7,13.9-43.3,10.9-57.2-6.8c-11.7-14.8-11.7-35.6,0-50.4
		C568.9,191.1,568.9,170.3,580.4,155.5L580.4,155.5z"/>
	<path class="st2" d="M653.2,180.7c0,9.1-3.1,18-8.7,25.2c13.9,17.7,10.9,43.3-6.8,57.2c-17.7,13.9-43.3,10.9-57.2-6.8
		c-11.7-14.8-11.7-35.6,0-50.4C575,198.9,653.2,176.1,653.2,180.7z"/>
</g>
<g class="st0">
	<ellipse class="st1" cx="1038.6" cy="322.1" rx="11.4" ry="14.9"/>
	<path class="st1" d="M1029.6,258.4c-1.6-2.8-2.4-5.9-2.4-9.1c0-8.2,5.1-14.9,11.4-14.9s11.4,6.7,11.4,14.9c0,3.2-0.8,6.3-2.4,9.1
		c3.2,5.7,3.2,12.6,0,18.2c3.2,5.7,3.2,12.6,0,18.2c1.6,2.8,2.4,5.9,2.4,9.1c0,8.2-5.1,14.9-11.4,14.9s-11.4-6.7-11.4-14.9
		c0-3.2,0.8-6.3,2.4-9.1c-3.2-5.7-3.2-12.6,0-18.2C1026.4,270.9,1026.4,264,1029.6,258.4z"/>
	<ellipse class="st1" cx="1038.6" cy="231.1" rx="11.4" ry="14.9"/>
	<ellipse class="st1" cx="1038.6" cy="212.9" rx="11.4" ry="14.9"/>
	<path class="st1" d="M1081.2,88.2c1.6-2,3-4.1,4.2-6.2l-29.9-4.9l32.3,0.2c6.3-13.7,6.6-29.3,1-43.2l-43.4,22.5l40-29.4
		c-14.9-26.2-48.2-35.3-74.4-20.4c-26.2,14.9-35.3,48.2-20.4,74.4c1.4,2.5,3,4.8,4.8,7.1c-2.4,3.1-4.5,6.4-6.2,9.9l38.8,20.2
		l-41.4-13.9c-5.9,17.5-2.6,36.7,8.8,51.2c-18.6,23.7-14.5,57.9,9.1,76.6s57.9,14.5,76.6-9.1c15.6-19.8,15.6-47.6,0-67.4
		C1096.7,135.9,1096.7,108,1081.2,88.2L1081.2,88.2z"/>
	<path class="st2" d="M983.8,121.9c0,12.2,4.1,24.1,11.7,33.7c-18.6,23.7-14.5,57.9,9.1,76.6s57.9,14.5,76.6-9.1
		c15.6-19.8,15.6-47.6,0-67.4C1088.5,146.4,983.8,115.8,983.8,121.9z"/>
</g>
<g class="st0">
	<ellipse class="st1" cx="928.7" cy="324.3" rx="8.5" ry="11.1"/>
	<path class="st1" d="M922,276.6c-1.2-2.1-1.8-4.4-1.8-6.8c0-6.1,3.8-11.1,8.5-11.1s8.5,5,8.5,11.1c0,2.4-0.6,4.7-1.8,6.8
		c2.4,4.2,2.4,9.4,0,13.6c2.4,4.2,2.4,9.4,0,13.6c1.2,2.1,1.8,4.4,1.8,6.8c0,6.1-3.8,11.1-8.5,11.1s-8.5-5-8.5-11.1
		c0-2.4,0.6-4.7,1.8-6.8c-2.4-4.2-2.4-9.4,0-13.6C919.6,286,919.6,280.9,922,276.6z"/>
	<ellipse class="st1" cx="928.7" cy="256.2" rx="8.5" ry="11.1"/>
	<ellipse class="st1" cx="928.7" cy="242.6" rx="8.5" ry="11.1"/>
	<path class="st1" d="M960.6,149.5c1.2-1.5,2.2-3,3.2-4.7l-22.3-3.7l24.2,0.2c4.7-10.2,5-21.9,0.8-32.3l-32.4,16.8l29.9-22
		c-11.2-19.5-36.2-26.2-55.7-15c-19.5,11.2-26.2,36.2-15,55.7c1,1.7,2.1,3.3,3.3,4.9c-1.8,2.3-3.4,4.8-4.7,7.4l29,15.1L890,161.6
		c-4.4,13-1.9,27.4,6.6,38.3c-13.9,17.7-10.9,43.3,6.8,57.2c17.7,13.9,43.3,10.9,57.2-6.8c11.7-14.8,11.7-35.6,0-50.4
		C972.2,185.1,972.2,164.3,960.6,149.5L960.6,149.5z"/>
	<path class="st2" d="M887.8,174.7c0,9.1,3.1,18,8.7,25.2c-13.9,17.7-10.9,43.3,6.8,57.2c17.7,13.9,43.3,10.9,57.2-6.8
		c11.7-14.8,11.7-35.6,0-50.4C966,192.9,887.8,170.1,887.8,174.7z"/>
</g>
<g class="st0">
	<ellipse class="st1" cx="61.6" cy="322.1" rx="11.4" ry="14.9"/>
	<path class="st1" d="M70.6,258.4c1.6-2.8,2.4-5.9,2.4-9.1c0-8.2-5.1-14.9-11.4-14.9s-11.4,6.7-11.4,14.9c0,3.2,0.8,6.3,2.4,9.1
		c-3.2,5.7-3.2,12.6,0,18.2c-3.2,5.7-3.2,12.6,0,18.2c-1.6,2.8-2.4,5.9-2.4,9.1c0,8.2,5.1,14.9,11.4,14.9S73,312.1,73,303.9
		c0-3.2-0.8-6.3-2.4-9.1c3.2-5.7,3.2-12.6,0-18.2C73.8,270.9,73.8,264,70.6,258.4L70.6,258.4z"/>
	<ellipse class="st1" cx="61.6" cy="231.1" rx="11.4" ry="14.9"/>
	<ellipse class="st1" cx="61.6" cy="212.9" rx="11.4" ry="14.9"/>
	<path class="st1" d="M19,88.2c-1.6-2-3-4.1-4.2-6.2l29.9-4.9l-32.4,0.3c-6.3-13.7-6.6-29.3-1-43.2l43.4,22.5l-40-29.4
		C29.6,1.1,63-7.9,89.1,7c26.1,14.9,35.2,48.3,20.3,74.4c-1.4,2.4-2.9,4.7-4.7,6.9c2.4,3.1,4.5,6.4,6.2,9.9l-38.8,20.2l41.4-13.9
		c5.9,17.5,2.6,36.7-8.8,51.2c18.6,23.7,14.5,57.9-9.1,76.6s-57.9,14.5-76.6-9.1c-15.6-19.8-15.6-47.6,0-67.4
		C3.4,135.9,3.4,108,19,88.2L19,88.2z"/>
	<path class="st2" d="M116.4,121.9c0,12.2-4.1,24.1-11.7,33.7c18.6,23.7,14.5,57.9-9.1,76.6s-57.9,14.5-76.6-9.1
		c-15.6-19.8-15.6-47.6,0-67.4C11.7,146.4,116.4,115.8,116.4,121.9z"/>
</g>
<g class="st0">
	<ellipse class="st1" cx="171.4" cy="324.3" rx="8.5" ry="11.1"/>
	<path class="st1" d="M178.2,276.6c1.2-2.1,1.8-4.4,1.8-6.8c0-6.1-3.8-11.1-8.5-11.1s-8.5,5-8.5,11.1c0,2.4,0.6,4.7,1.8,6.8
		c-2.4,4.2-2.4,9.4,0,13.6c-2.4,4.2-2.4,9.4,0,13.6c-1.2,2.1-1.8,4.4-1.8,6.8c0,6.1,3.8,11.1,8.5,11.1s8.5-5,8.5-11.1
		c0-2.4-0.6-4.7-1.8-6.8c2.4-4.2,2.4-9.4,0-13.6C180.5,286,180.5,280.9,178.2,276.6z"/>
	<ellipse class="st1" cx="171.4" cy="256.2" rx="8.5" ry="11.1"/>
	<ellipse class="st1" cx="171.4" cy="242.6" rx="8.5" ry="11.1"/>
	<path class="st1" d="M139.6,149.5c-1.2-1.5-2.2-3-3.2-4.7l22.4-3.7l-24.2,0.2c-4.7-10.2-5-21.9-0.8-32.3l32.4,16.8l-29.9-22
		c11.2-19.5,36.2-26.2,55.7-14.9c19.5,11.2,26.2,36.2,14.9,55.7c-1,1.7-2.1,3.3-3.3,4.9c1.8,2.3,3.4,4.8,4.6,7.4l-29,15.1l30.9-10.4
		c4.4,13,1.9,27.4-6.6,38.3c13.9,17.7,10.9,43.3-6.8,57.2c-17.7,13.9-43.3,10.9-57.2-6.8c-11.7-14.8-11.7-35.6,0-50.4
		C128,185.1,128,164.3,139.6,149.5L139.6,149.5z"/>
	<path class="st2" d="M212.4,174.7c0,9.1-3.1,18-8.7,25.2c13.9,17.7,10.9,43.3-6.8,57.2c-17.7,13.9-43.3,10.9-57.2-6.8
		c-11.7-14.8-11.7-35.6,0-50.4C134.1,192.9,212.4,170.1,212.4,174.7z"/>
</g>
<ellipse class="st3" cx="548" cy="493.1" rx="548" ry="8.9"/>
<ellipse class="st3" cx="548" cy="565.9" rx="548" ry="8.9"/>
<ellipse class="st3" cx="548" cy="341.3" rx="548" ry="8.9"/>
<ellipse class="st3" cx="548" cy="417.2" rx="548" ry="8.9"/>
<path class="st2" d="M811.5,69l-9.8,6.2l6-10.8c-1.7-1.3-3.8-2.1-5.9-2.1h-0.2c-0.7,0-1.3,0-2-0.1l-3.4,2.1l1.4-2.6
	c-2.4-0.8-4.4-2.4-5.8-4.4l-6,3.8l3.8-6.8c-3.5-4.2-8.2-6.7-13.3-6.7c-6.2,0-11.7,3.7-15.3,9.4c-2.1,3.5-6,5.6-10.1,5.4h-0.3
	c-6.8,0-12.4,7.8-12.4,17.3c0,9.6,5.5,17.3,12.4,17.3c1.5,0,3-0.4,4.3-1.1c4.7-2.3,10.2-2.4,15-0.3c4.1,1.8,8.7,1.8,12.7,0
	c4.8-2.1,10.2-2,14.9,0.3c1.3,0.7,2.8,1.1,4.3,1.1c6.8,0,12.4-7.8,12.4-17.3C814.1,75.8,813.2,72.2,811.5,69z"/>
<path class="st2" d="M377.5,52.5l-6.9,4.4l4.2-7.6c-1.2-0.9-2.6-1.5-4.1-1.5h-0.1c-0.5,0-1,0-1.4-0.1l-2.3,1.5l1-1.8
	c-1.7-0.6-3.1-1.7-4.1-3.1l-4.2,2.6l2.6-4.8c-2.2-2.9-5.7-4.6-9.3-4.7c-4.3,0-8.2,2.6-10.7,6.6c-1.5,2.4-4.2,3.9-7.1,3.8h-0.2
	c-4.8,0-8.7,5.4-8.7,12.1s3.9,12.1,8.7,12.1c1,0,2.1-0.3,3-0.8c3.3-1.6,7.1-1.7,10.5-0.2c1.4,0.6,2.9,1,4.5,1c1.5,0,3-0.3,4.4-0.9
	c3.3-1.4,7.1-1.4,10.4,0.2c0.9,0.5,2,0.7,3,0.7c4.8,0,8.7-5.4,8.7-12.1C379.3,57.4,378.7,54.8,377.5,52.5z"/>
<path class="st2" d="M256.6,136l6.9,4.4l-4.2-7.6c1.2-0.9,2.6-1.5,4.2-1.5h0.1c0.5,0,1,0,1.4-0.1l2.3,1.5l-1-1.8
	c1.6-0.6,3.1-1.7,4.1-3.1l4.2,2.6l-2.6-4.8c2.2-2.9,5.7-4.6,9.3-4.7c4.3,0,8.2,2.6,10.7,6.6c1.5,2.4,4.2,3.9,7.1,3.8h0.2
	c4.8,0,8.7,5.4,8.7,12.1s-3.9,12.1-8.7,12.1c-1,0-2.1-0.3-3-0.8c-3.3-1.6-7.1-1.7-10.5-0.2c-1.4,0.6-2.9,1-4.5,1
	c-1.5,0-3-0.3-4.4-0.9c-3.3-1.4-7.1-1.4-10.4,0.2c-0.9,0.5-2,0.7-3,0.7c-4.8,0-8.7-5.4-8.7-12.1C254.8,140.9,255.4,138.3,256.6,136z
	"/>
<path class="st4" d="M670.4,442.6c-6.8,0.3-12.6-4.9-12.9-11.7c-0.1-1.9,0.3-3.8,1.1-5.6c1,0.7,1.9,1.5,2.6,2.5
	c0.8,1.4,1.7,2.8,2.7,4.2c2.1,2.3,5.6,3.1,8.7,3s6-0.8,9-1C680.1,438.9,675.6,442.4,670.4,442.6z"/>
<path class="st4" d="M676.5,466.5c-3.1,6-10.5,8.4-16.6,5.3c-3.9-2-6.4-5.9-6.7-10.3c-0.1-1.7,0.2-3.4,0.8-5c1,0.7,1.9,1.5,2.7,2.4
	c1.2,1.4,1.9,3,3.3,4.4c2.5,2.5,6.6,3.5,10.2,3.6C672.3,466.9,674.4,466.8,676.5,466.5z"/>
<path class="st4" d="M66.4,394.1c-3.1,6-10.5,8.4-16.5,5.3c-3.9-2-6.4-5.9-6.6-10.3c-0.1-1.7,0.2-3.4,0.8-5c1,0.7,1.9,1.5,2.7,2.4
	c1.2,1.4,1.9,3,3.3,4.3c2.5,2.5,6.5,3.5,10.1,3.6C62.2,394.4,64.3,394.3,66.4,394.1z"/>
<path class="st5" d="M424.5,268.4c6.8,0.3,12.6-4.9,12.9-11.7c0.1-2-0.3-4-1.2-5.8c-1,0.7-1.8,1.5-2.5,2.5c-0.7,1.4-1.6,2.8-2.4,4.1
	c-1.9,2.3-5.2,3-8.2,2.9s-5.8-1-8.8-1.3c-0.4,0-0.8-0.1-1.2-0.1C414.4,264.2,419,268.1,424.5,268.4z"/>
<path class="st5" d="M448.3,312.2c3.1,6,10.6,8.4,16.6,5.3c5.5-2.9,8-9.4,5.9-15.3c-1,0.7-1.9,1.5-2.7,2.4c-1.2,1.4-2,3-3.3,4.4
	c-2.5,2.5-6.6,3.5-10.2,3.6C452.5,312.5,450.4,312.4,448.3,312.2z"/>
<circle class="st6" cx="779.7" cy="238.2" r="100"/>
<path class="st7" d="M822.6,264c-3.5-3.5-11.8-8.7-16-10.7c-4.8-2.3-6.5-2.3-9.9,0.2c-2.8,2-4.7,3.9-7.9,3.2s-9.7-5.5-15.9-11.7
	s-11-12.6-11.7-15.9s1.2-5.1,3.2-7.9c2.4-3.4,2.5-5.1,0.2-9.9c-2-4.1-7.2-12.5-10.7-16s-4.3-2.7-6.2-2c-2,0.8-3.9,1.8-5.7,3
	c-3.5,2.3-5.4,4.3-6.8,7.2s-2.9,8.3,5,22.5c5.9,10.9,13.3,20.8,22.1,29.5l0,0l0,0c8.7,8.8,18.7,16.3,29.6,22.1
	c14.2,8,19.6,6.4,22.5,5s4.9-3.3,7.2-6.8c1.2-1.8,2.2-3.7,3-5.7C825.4,268.2,826.2,267.4,822.6,264z"/>
<path class="st5" d="M779.7,138.2c-55.2,0-100,44.7-100,100c0,55.2,44.7,100,100,100c55.2,0,100-44.7,100-100c0,0,0-0.1,0-0.1
	C879.7,183,834.9,138.3,779.7,138.2z M779.7,324.8c-47.9,0-86.7-38.8-86.7-86.7c0-47.9,38.8-86.7,86.7-86.7
	c47.9,0,86.7,38.8,86.7,86.7v0C866.4,286,827.6,324.9,779.7,324.8L779.7,324.8L779.7,324.8z"/>
<circle class="st6" cx="550.1" cy="390" r="100"/>
<path class="st7" d="M606.9,359.8L577,390.3c-0.2,0.2-0.2,0.5,0,0.8c0,0,0,0,0,0l21,22.3c1.4,1.4,1.4,3.7,0,5.1
	c-0.7,0.7-1.6,1-2.5,1.1c-1,0-1.9-0.4-2.6-1.1L572,396.2c-0.2-0.2-0.6-0.2-0.8,0l-5.1,5.1c-4.2,4.3-10,6.7-16,6.7
	c-6.1,0-12-2.5-16.3-6.9l-4.9-5c-0.2-0.2-0.6-0.2-0.8,0l-20.8,22.2c-1.4,1.4-3.7,1.4-5.1,0c0,0,0,0,0,0c-1.4-1.4-1.4-3.7,0-5.1
	c0,0,0,0,0,0l20.9-22.3c0.2-0.2,0.2-0.6,0-0.8l-29.9-30.5c-0.2-0.2-0.6-0.2-0.8,0c-0.1,0.1-0.2,0.2-0.2,0.4v60.9
	c0,4.9,4,8.9,8.9,8.9H599c4.9,0,8.9-4,8.9-8.9v-60.9c0-0.3-0.2-0.6-0.5-0.6C607.2,359.6,607,359.7,606.9,359.8z"/>
<path class="st7" d="M550.1,400.9c4.1,0,8-1.6,10.9-4.5l43.6-44.4c-1.5-1.3-3.5-2-5.5-2h-97.9c-2,0-4,0.7-5.5,2l43.6,44.4
	C542.1,399.3,546,400.9,550.1,400.9z"/>
<path class="st5" d="M548.8,290.1c-55.2,0-100,44.7-100,100c0,55.2,44.7,100,99.9,100c55.2,0,100-44.7,100-100c0,0,0-0.1,0-0.1
	C648.7,334.8,604,290.1,548.8,290.1z M548.8,476.7c-47.9,0-86.7-38.8-86.7-86.7c0-47.9,38.8-86.7,86.7-86.7
	c47.9,0,86.7,38.8,86.7,86.7l0,0C635.5,437.9,596.7,476.7,548.8,476.7z"/>
<circle class="st6" cx="312.9" cy="315.4" r="100"/>
<path class="st7" d="M312.9,267.5L273,359.5l3.7,3.7l36.1-15.9l36.1,15.9l3.7-3.7L312.9,267.5z"/>
<path class="st5" d="M312.9,215.4c-55.2,0-100,44.7-100.1,99.9c0,55.2,44.7,100,99.9,100.1c55.2,0,100-44.7,100.1-99.9
	c0,0,0,0,0-0.1C412.8,260.2,368.1,215.4,312.9,215.4z M312.9,402c-47.9,0-86.7-38.8-86.7-86.7s38.8-86.7,86.7-86.7
	s86.7,38.8,86.7,86.7c0,0,0,0,0,0C399.5,363.2,360.7,402,312.9,402L312.9,402z"/>
<path class="st5" d="M788.9,567c0,0.8-1.6,2.8-1.6,2.8c-3.2,0.4-6.4,0-9.4-1.2c-0.8-0.4,0.4-2.8,0.4-2.8l0.1-0.2
	c2.7,1.2,5.6,1.8,8.6,1.8l1.8-1.8C788.8,566.3,788.9,566.8,788.9,567z"/>
<path class="st5" d="M842.5,366.7c-6.8,0.3-12.6-4.9-12.9-11.7c-0.1-1.9,0.3-3.9,1.1-5.7c1,0.7,1.9,1.5,2.6,2.5
	c1,1.3,1.5,2.9,2.7,4.2c2.1,2.3,5.6,3.1,8.7,3.1s6-0.8,9-1C852.1,363,847.7,366.5,842.5,366.7z"/>
<path class="st4" d="M1031.4,498.8c-6.8,0.3-12.6-4.9-12.9-11.7c-0.1-2,0.3-4,1.2-5.8c1,0.7,1.8,1.5,2.5,2.5
	c0.7,1.4,1.5,2.8,2.4,4.1c1.9,2.3,5.2,3,8.2,2.9s5.8-1,8.8-1.3c0.4,0,0.8-0.1,1.2-0.1C1041.5,494.7,1036.9,498.6,1031.4,498.8z"/>
<path class="st5" d="M1007.6,542.6c-3.2,6-10.7,8.3-16.7,5.1c-5.4-2.9-7.9-9.3-5.8-15.1c1,0.7,1.9,1.5,2.7,2.4c1.2,1.4,2,3,3.3,4.4
	c2.5,2.5,6.6,3.5,10.2,3.6C1003.4,543,1005.5,542.9,1007.6,542.6z"/>
<linearGradient id="SVGID_1_" gradientUnits="userSpaceOnUse" x1="462.9624" y1="-86.6928" x2="462.9624" y2="14.2972" gradientTransform="matrix(1 0 0 -1 -52 411.37)">
	<stop  offset="0" style="stop-color:#808080;stop-opacity:0.25"/>
	<stop  offset="0.54" style="stop-color:#808080;stop-opacity:0.12"/>
	<stop  offset="1" style="stop-color:#808080;stop-opacity:0.1"/>
</linearGradient>
<path class="st8" d="M478,425.3c0-3.1-1.4-6-3.9-7.9c0-5.6-4.1-10.4-9.6-11.3c-0.8-4-3.8-7.3-7.6-8.5l0,0c-0.5-0.1-0.9-0.3-1.4-0.3
	h-0.1H455h-0.2h-0.2h-0.3h-0.6c-5.5,0.1-10.1,4.2-10.9,9.6c-3.5-0.8-6.7,0.2-7.3,2.5c-0.1,0.6-0.1,1.2,0.1,1.8
	c0.6,1.7,2.5,3.4,5.2,4.2l0.3,0.1l0.5,0.1h0.1l0,0c-0.6,1.2-0.8,2.5-0.8,3.8c0,3.3,1.8,6.3,4.7,7.8l-0.2,0.1
	c-0.3,0.3-0.6,0.7-0.8,1.1c-0.6,1.1-1.1,2.3-1.5,3.5c-0.3,1.1-0.3,2.2-0.6,3.2c-0.6,1.9-2.1,3.6-2.2,5.6c-0.1,0.9,0.1,2-0.6,2.6
	c-0.2,0.1-0.3,0.3-0.5,0.4c-0.4,0.3-0.8,0.7-1.1,1.2c-0.2,0.4-0.5,0.8-0.8,1.1c-0.6,0.4-1.5,0.4-1.8,1.1s0.5,1.5,0.3,2.2
	s-0.8,0.9-1.2,1.3c-0.5,0.6-0.9,1.3-1.1,2c-1.9,0.4-3.9-0.1-5.4-1.4c0.3,0.6,0.4,1.3,0.6,2c-0.9-0.7-1.9-1.2-2.9-1.5
	c-1.2-0.5-2.2-1.3-3.1-2.3l1.7-0.2l-7.3-11.2l-2.2-0.5l1.9,3.7c-0.3,0.1-0.6,0.4-0.7,0.8c-0.1,0.4-0.1,0.8-0.1,1.3
	c0.1,1,0.3,2,0.5,3l0.6,2.6c0,0.2,0.1,0.5,0.2,0.7c-0.7,0-1.5,0-2.2,0.2c-1.5-0.5-3-0.9-4.5-1.1c-0.3-0.1-0.7-0.1-1,0
	c-0.4,0.2-0.7,0.4-1,0.8c-1.3,1.5-2.4,3-3.4,4.7c-4,6.9-9.2,12.8-14.1,19c-3.4,1.4-6.8,2.7-10.3,4l-7.4,2.8c-1.4,0.7-3,1-4.6,1
	c-0.7,0-1.6-0.2-2,0.5c-0.2,0.3-0.3,0.6-0.5,1l-0.8,0.1l0,0c-0.3-1.2-1-2.3-1.8-3.3c-0.4,0.1-0.7,0.3-0.8,0.6
	c-0.2,0.3-0.3,0.7-0.5,1c-0.4,0.6-1.1,0.9-1.6,1.3s-0.8,1.3-1.3,1.8c-0.7,0.5-1.6,0.9-2.5,1c-1.4,0.3-2.7,0.8-3.9,1.5
	c-0.5,0.3-0.9,0.5-1.5,0.7c-0.6,0.1-1.1,0.1-1.7,0.1l-3.9-0.3c-0.4,0-0.7,0-1,0c-0.8,0.3-1.3,1.1-1.2,2c0.1,0.9,0.5,1.6,1.2,2.2
	c0.7,0.5,1.4,0.9,2.2,1.2c3.4,1.3,6.9,2.3,10.4,3.1v0.8c2.5,1.3,5.2,1.9,8,1.9c0.2,0,0.4,0,0.6-0.1c0.3-0.2,0.4-0.5,0.5-0.8
	c0.8-2.5,1.4-5.1,1.6-7.7l0,0c0.5,0,1-0.2,1.4-0.4c1.3-0.4,2.7,0.5,4.1,0.7c1.7,0.2,3.3-0.8,4.9-1.4l0.7-0.2c-0.5,0.6-1,1.1-1.6,1.5
	c-0.7,0.5-1.4,0.8-2.1,1.3c-0.6,0.5-1.1,1-1.8,1.4c-0.4,0.2-0.9,0.4-1.4,0.5c-0.7,0.3-1.3,0.6-1.9,1c-0.5,0.3-1,0.8-1.3,1.3
	c-0.3,0.5-0.4,1.2-0.1,1.8c0.3,0.5,0.8,0.8,1.3,0.9c0.5,0.1,1.1,0.1,1.6,0c2.1-0.2,4.2-0.3,6.3-0.5c0.9-0.1,1.8-0.2,2.6-0.4
	c0.5-0.1,0.9-0.3,1.4-0.4c0.8-0.2,1.6-0.3,2.4-0.4c0.2,0,0.5,0,0.7,0.1c0.5,0.2,0.8,0.7,1.3,0.8c0.3,0,0.7,0,1-0.1
	c1.5-0.3,3.1-0.5,4.7-0.5c0.7,0,1.5-0.2,1.8-0.8s-0.3-1.7-0.5-2.5c-0.1-0.5-0.2-1.1-0.2-1.7c-0.1-1.4-0.5-2.7-1.2-3.9
	c-0.3-0.6-0.6-1.2-0.9-1.8c3-1.1,5.9-2.6,8.6-4.4c1.5-1.1,3.2-1.9,4.9-2.4c2.1-0.2,4.2,0,6.2,0.7c4.8,1.4,9.5,3,14.2,4.9
	c2.2,0.9,4.4,1.9,6.7,2.6c0.7,0.9,1.5,1.7,2.4,2.3c1.6,0.9,3.3,1.4,5.1,1.4c2.4,0.2,4.8,0.3,7.3,0.3c1.9,0.1,3.7-0.3,5.4-1
	c0.4-0.2,0.8-0.5,1.1-0.8c1.3,0.1,2.6-0.4,3.6-1.3c1.3-1.1,2.3-2.6,2.7-4.3c0.6-2.3,0.1-5,1.5-6.8c0.4-0.5,0.9-0.9,1.2-1.4
	c0.4-0.7,0.7-1.5,0.6-2.3c0,0,0-0.1,0.1-0.1c0.3-0.7,0.5-1.5,0.6-2.3c0.2-0.6,0.4-1.2,0.7-1.8c0.7-1.8,1.3-3.6,1.9-5.4
	c0.4-1.2,0.6-2.5,0.9-3.7c0.2-1,0.2-2,0.3-3c0.1-1.6,0.4-3.1,0.9-4.6c1.3-3.6,2-7.3,2.1-11.1v-0.2c3.8-0.4,6.7-3.7,6.6-7.6
	c0-1.1-0.2-2.2-0.7-3.2C477.5,428.8,478,427,478,425.3z M442.2,468.8c0.1,0.4,0.2,0.8,0.4,1.2c-0.6-0.6-1.2-1.2-1.8-1.7
	c0.2,0.1,0.5,0.2,0.7,0.2C441.8,468.5,442,468.6,442.2,468.8L442.2,468.8z M439.4,466.8c-3.5-3-7.5-5.3-11-8.2
	c1.9,1,3.8,2.1,5.7,3.1c2.2,1.3,4.4,2.5,6.7,3.6C440.4,465.9,439.9,466.4,439.4,466.8L439.4,466.8z M440.9,459.3l0.2-0.2
	c0,0.4,0,0.8,0,1.2l-0.9-0.3C440.4,459.8,440.6,459.5,440.9,459.3L440.9,459.3z M410.4,467.4c1.4-1.6,2.7-3.4,3.7-5.3
	c1.4,2.4,3.6,4.1,5.5,6.1C416.5,467.9,413.5,467.5,410.4,467.4z"/>
<polygon class="st9" points="415.4,438.3 417.5,438.7 425,449.7 421.7,450.1 "/>
<path class="st10" d="M362.5,482.8c0.6,1.9,1.3,3.8,2.2,5.7c2.5-0.5,4.9-1.2,7.3-2.1c-0.5-0.7-1-1.4-1.5-2c-0.6-0.6-1.3-1.2-2-1.6
	c-0.8-0.2-1.7-0.2-2.5,0C364.8,482.8,363.6,482.8,362.5,482.8z"/>
<path class="st9" d="M368.4,485.8c-1.2-0.5-2.1-1.6-2.5-2.8c-0.4-1.2-1-2.4-1.9-3.4c-0.4,0.1-0.7,0.3-0.8,0.6
	c-0.2,0.3-0.3,0.7-0.5,1c-0.4,0.6-1.1,0.8-1.6,1.3s-0.8,1.2-1.3,1.7c-0.7,0.5-1.6,0.9-2.5,1c-1.4,0.3-2.7,0.8-4,1.5
	c-0.5,0.3-1,0.5-1.5,0.7c-0.6,0.1-1.1,0.1-1.7,0l-3.9-0.3c-0.3-0.1-0.7-0.1-1,0c-0.8,0.3-1.3,1.1-1.3,2c0.1,0.9,0.5,1.6,1.3,2.1
	c0.7,0.5,1.4,0.9,2.2,1.1c3.4,1.3,7,2.3,10.6,3v0.8c2.5,1.2,5.3,1.9,8,1.9c0.2,0,0.4,0,0.6-0.1c0.3-0.2,0.4-0.5,0.5-0.8
	c0.9-2.8,1.5-5.6,1.6-8.6c0.1-0.7,0-1.5-0.2-2.2C368.3,485.6,369,485.9,368.4,485.8"/>
<path class="st9" d="M443.9,470.9c-11.7,0.7-23.2-2.7-34.9-3.1c-1.5-0.1-2.9,0-4.3,0.3c-1.5,0.4-2.9,1-4.3,1.7
	c-6.3,2.9-12.8,5.3-19.2,7.8l-7.5,2.8c-1.4,0.7-3,1-4.6,1c-0.7,0-1.6-0.2-2,0.4c-1.2,1.8-0.6,4.4,0.2,6.5c0.3,0.7,0.7,1.4,1.4,1.4
	c0.5,0,1-0.2,1.4-0.4c1.4-0.4,2.7,0.5,4.1,0.7c1.7,0.2,3.3-0.8,5-1.4c2.7-1,5.6-1,8.5-1.4c4.8-0.8,9.2-3,13.3-5.5
	c1.5-1.1,3.2-1.9,5-2.3c2.1-0.2,4.2,0,6.2,0.7c4.8,1.4,9.6,3,14.3,4.9c2.4,1.1,4.9,2,7.5,2.7c5.5,1.4,11.4,1.1,16.7-1
	c1.9-0.7,3.9-2,4-4.1c0.1-1.2-0.8-2.2-1.4-3.2c-0.4-0.6-0.8-1.3-1.2-1.9C449.9,474.6,447.5,470.7,443.9,470.9z"/>
<path class="st5" d="M443.9,470.9c-11.7,0.7-23.2-2.7-34.9-3.1c-1.5-0.1-2.9,0-4.3,0.3c-1.5,0.4-2.9,1-4.3,1.7
	c-6.3,2.9-12.8,5.3-19.2,7.8l-7.5,2.8c-1.4,0.7-3,1-4.6,1c-0.7,0-1.6-0.2-2,0.4c-1.2,1.8-0.6,4.4,0.2,6.5c0.3,0.7,0.7,1.4,1.4,1.4
	c0.5,0,1-0.2,1.4-0.4c1.4-0.4,2.7,0.5,4.1,0.7c1.7,0.2,3.3-0.8,5-1.4c2.7-1,5.6-1,8.5-1.4c4.8-0.8,9.2-3,13.3-5.5
	c1.5-1.1,3.2-1.9,5-2.3c2.1-0.2,4.2,0,6.2,0.7c4.8,1.4,9.6,3,14.3,4.9c2.4,1.1,4.9,2,7.5,2.7c5.5,1.4,11.4,1.1,16.7-1
	c1.9-0.7,3.9-2,4-4.1c0.1-1.2-0.8-2.2-1.4-3.2c-0.4-0.6-0.8-1.3-1.2-1.9C449.9,474.6,447.5,470.7,443.9,470.9z"/>
<path class="st10" d="M384.9,483.4c1.8,0.6,3.7,1.2,5.5,1.7c1-1.7,3-2.9,3.4-4.9c0-0.1,0-0.2,0-0.3c0-0.1-0.1-0.1-0.2-0.2
	c-1.3-0.7-2.8-1.2-4.3-1.3c-1.2-0.1-1.8,1.2-2.3,2.1C386.8,481,385.4,483.6,384.9,483.4z"/>
<path class="st9" d="M387.5,482.2c-1.1-0.2-2.1-0.8-2.7-1.8c-0.3-0.5-0.5-1.1-1-1s-0.7,0.6-0.8,1.1c-0.3,1.8-0.9,3.5-1.5,5.2
	c-0.7,1.7-1.8,3.2-3.2,4.3c-0.7,0.5-1.4,0.8-2.1,1.3c-0.6,0.5-1.1,0.9-1.8,1.3c-0.4,0.2-0.9,0.4-1.4,0.5c-0.7,0.3-1.3,0.6-1.9,1
	c-0.5,0.3-1,0.7-1.3,1.3c-0.3,0.5-0.4,1.2-0.1,1.8c0.3,0.5,0.8,0.8,1.3,0.9c0.5,0.1,1.1,0.1,1.6,0c2.1-0.2,4.3-0.3,6.4-0.5
	c0.9-0.1,1.8-0.2,2.7-0.4l1.4-0.4c0.8-0.2,1.6-0.3,2.4-0.4c0.2,0,0.5,0,0.7,0.1c0.5,0.2,0.8,0.7,1.4,0.8c0.3,0,0.7,0,1-0.1
	c1.6-0.3,3.1-0.5,4.7-0.5c0.7,0,1.5-0.2,1.8-0.8c0.4-0.8-0.3-1.7-0.5-2.5c-0.1-0.5-0.2-1.1-0.2-1.6c-0.1-1.4-0.5-2.7-1.2-3.9
	c-0.5-1-1.3-2.1-0.9-3.2c0.2-0.3,0.3-0.7,0.4-1.1C392.4,481.8,388.5,482.4,387.5,482.2z"/>
<path class="st10" d="M426.4,452.2c-2.1-0.9-3.7-2.6-4.7-4.6c-0.2-0.4-0.4-0.9-0.5-1.3c-0.6-1.5-1.6-2.8-2.8-3.9
	c-0.3-0.3-0.6-0.4-1-0.4c-0.4,0.1-0.7,0.4-0.8,0.8c-0.1,0.4-0.1,0.8-0.1,1.3c0.1,1,0.3,2,0.5,2.9l0.6,2.6c0.1,0.4,0.2,0.8,0.4,1.2
	c0.2,0.4,0.6,0.8,1,1.1c0.5,0.5,1,0.9,1.6,1.4c0.3,0.3,0.6,0.5,1,0.7c0.6,0.3,1.2,0.4,1.8,0.5c2.4,0.3,4.7,1.2,6.6,2.6
	c0,0,0-1.7,0-1.9c0-0.5-0.2-1-0.5-1.4C428.6,452.9,427.5,452.4,426.4,452.2z"/>
<path class="st5" d="M426.4,452.2c-2.1-0.9-3.7-2.6-4.7-4.6c-0.2-0.4-0.4-0.9-0.5-1.3c-0.6-1.5-1.6-2.8-2.8-3.9
	c-0.3-0.3-0.6-0.4-1-0.4c-0.4,0.1-0.7,0.4-0.8,0.8c-0.1,0.4-0.1,0.8-0.1,1.3c0.1,1,0.3,2,0.5,2.9l0.6,2.6c0.1,0.4,0.2,0.8,0.4,1.2
	c0.2,0.4,0.6,0.8,1,1.1c0.5,0.5,1,0.9,1.6,1.4c0.3,0.3,0.6,0.5,1,0.7c0.6,0.3,1.2,0.4,1.8,0.5c2.4,0.3,4.7,1.2,6.6,2.6
	c0,0,0-1.7,0-1.9c0-0.5-0.2-1-0.5-1.4C428.6,452.9,427.5,452.4,426.4,452.2z"/>
<ellipse class="st9" cx="450.2" cy="429.6" rx="2.8" ry="2.9"/>
<path class="st9" d="M448.4,427.8c-0.8-0.2-1.6-0.1-2.2,0.3c-0.3,0.3-0.6,0.6-0.8,1c-0.6,1.1-1.1,2.3-1.5,3.5
	c-0.3,1-0.3,2.1-0.6,3.2c-0.6,1.9-2.1,3.5-2.2,5.5c-0.1,0.9,0.1,1.9-0.6,2.5c-0.2,0.1-0.3,0.3-0.5,0.4c-0.5,0.3-0.8,0.7-1.1,1.2
	c-0.2,0.4-0.5,0.8-0.8,1.1c-0.6,0.4-1.5,0.4-1.8,1s0.5,1.4,0.3,2.2s-0.8,0.9-1.3,1.3c-0.5,0.6-0.9,1.2-1.1,2
	c-1.9,0.4-3.9-0.1-5.4-1.3c0.7,2,0.9,4.1,0.9,6.2c0.1,0.7-0.1,1.4-0.5,1.9c2.3,0.2,4.5,0.6,6.7,1.2c0.9,0.3,2,0.3,2.9,0
	c0.5-0.3,1-0.6,1.3-1.1c1.2-1.2,2.5-2.5,2.8-4.2c0.1-1,0.1-1.9,0-2.9c0.1-1.2,0.4-2.4,0.7-3.5c0.6-2.4,1.1-4.8,1.3-7.2
	c0.1-1.5,1.4-2.7,2.1-4c1.3-2.5,2.6-5.2,2.7-8C449.7,429.1,449.4,428,448.4,427.8z"/>
<path class="st5" d="M448.4,427.8c-0.8-0.2-1.6-0.1-2.2,0.3c-0.3,0.3-0.6,0.6-0.8,1c-0.6,1.1-1.1,2.3-1.5,3.5
	c-0.3,1-0.3,2.1-0.6,3.2c-0.6,1.9-2.1,3.5-2.2,5.5c-0.1,0.9,0.1,1.9-0.6,2.5c-0.2,0.1-0.3,0.3-0.5,0.4c-0.5,0.3-0.8,0.7-1.1,1.2
	c-0.2,0.4-0.5,0.8-0.8,1.1c-0.6,0.4-1.5,0.4-1.8,1s0.5,1.4,0.3,2.2s-0.8,0.9-1.3,1.3c-0.5,0.6-0.9,1.2-1.1,2
	c-1.9,0.4-3.9-0.1-5.4-1.3c0.7,2,0.9,4.1,0.9,6.2c0.1,0.7-0.1,1.4-0.5,1.9c2.3,0.2,4.5,0.6,6.7,1.2c0.9,0.3,2,0.3,2.9,0
	c0.5-0.3,1-0.6,1.3-1.1c1.2-1.2,2.5-2.5,2.8-4.2c0.1-1,0.1-1.9,0-2.9c0.1-1.2,0.4-2.4,0.7-3.5c0.6-2.4,1.1-4.8,1.3-7.2
	c0.1-1.5,1.4-2.7,2.1-4c1.3-2.5,2.6-5.2,2.7-8C449.7,429.1,449.4,428,448.4,427.8z"/>
<path class="st9" d="M445.8,473.4c-2.4-1.2-4.2-3.3-6.2-5.2c-3.8-3.5-8.3-6-12.3-9.3c-2.6-2.2-5-4.7-7.8-6.6
	c-2.5-1.6-5.4-2.6-8.4-2.9c-0.3-0.1-0.7-0.1-1,0c-0.4,0.2-0.7,0.4-1,0.8c-1.3,1.4-2.4,3-3.4,4.7c-5,8.5-12.1,15.6-18,23.5
	c-0.1,0.2-0.2,0.4-0.3,0.6c0,0.3,0.1,0.6,0.2,0.9l1.2,2.3c0.7,1.3,1.8,2.8,3.2,2.6c0.6-0.2,1.2-0.6,1.7-1.1l5.4-5.2l5.6-5.4
	c3.3-3.2,6.7-6.4,8.8-10.4c1.7,2.9,4.7,4.8,6.7,7.5c0.8,1,1.4,2.1,2.1,3.2c1.1,1.7,2.4,3.3,3.6,5l6.5,8.3c0.8,1.2,1.8,2.2,3,3
	c1.6,0.9,3.4,1.3,5.2,1.4c2.4,0.2,4.9,0.3,7.3,0.3c1.9,0.1,3.7-0.3,5.5-1c1.7-0.8,2.9-2.5,3-4.4c-0.1-1-0.4-1.9-0.9-2.7
	C453.1,479,450.1,475.4,445.8,473.4z"/>
<ellipse class="st11" cx="452" cy="431.5" rx="2.2" ry="2.2"/>
<path class="st10" d="M451.5,429.9c0.5,1,0.6,2.1,0.2,3.2c-0.3,1-0.8,2-1.4,2.9c-0.5,0.9-1.1,1.8-1.8,2.6c3.4,0.2,6.6-1.2,9.6-2.8
	c2.4-1.3,4.8-2.9,6.1-5.3c-0.8,0.2-1.6,0-2.2-0.4c-0.6-0.4-1.2-1-1.7-1.6l-1.7-1.9c-0.4-0.4-0.7-0.9-1-1.4c-0.4-0.7-0.5-1.4-0.5-2.2
	c-0.7,0.7-1.4,1.3-2.2,1.9c-1.2,0.8-2.5,1.4-3.8,2.1c-0.4,0.3-1.4,0.7-1.1,1.3S451.1,429.3,451.5,429.9z"/>
<path class="st5" d="M451.5,429.9c0.5,1,0.6,2.1,0.2,3.2c-0.3,1-0.8,2-1.4,2.9c-0.5,0.9-1.1,1.8-1.8,2.6c3.4,0.2,6.6-1.2,9.6-2.8
	c2.4-1.3,4.8-2.9,6.1-5.3c-0.8,0.2-1.6,0-2.2-0.4c-0.6-0.4-1.2-1-1.7-1.6l-1.7-1.9c-0.4-0.4-0.7-0.9-1-1.4c-0.4-0.7-0.5-1.4-0.5-2.2
	c-0.7,0.7-1.4,1.3-2.2,1.9c-1.2,0.8-2.5,1.4-3.8,2.1c-0.4,0.3-1.4,0.7-1.1,1.3S451.1,429.3,451.5,429.9z"/>
<path class="st11" d="M451.5,430.2c-0.7,1-0.7,2.3,0,3.3c0.1,0.1,0.5,0.9,0.6,0.9c0.1,0,0.3-0.1,0.4-0.2c0.8-0.8,1.5-1.7,2.1-2.5
	c0.7-0.9,1.6-1.5,2.7-1.8c1.3-0.1,2.7,0.4,3.7,1.2c0.5,0.2,0.9,0.6,1.3,1c0.2,0.4,0.4,0.9,0.4,1.4c0.3,3,0.5,6.1,0.4,9.1
	c0.1,2.2-0.1,4.4-0.4,6.5c-0.2,1.1-0.5,2.2-0.7,3.3c-0.1,1-0.2,2-0.1,3v4.2c0,0.8,0,1.5,0.2,2.3c0.2,0.9,0.6,1.8,0.9,2.7
	c0.3,1,0.5,2.1,0.6,3.1l0.6,4.3c0.2,1.4,0.3,2.8-0.5,4c-0.4,0.5-0.9,0.9-1.2,1.4c-1.4,1.8-1,4.5-1.5,6.7c-0.5,1.6-1.4,3.1-2.7,4.2
	c-1,0.9-2.3,1.4-3.6,1.3c-1.8-0.3-2.8-2.2-3.3-3.9s-0.6-3.6-1.7-5.1c-1-1.1-2.1-2-3.3-2.8c-1.3-0.8-2.2-2-2.6-3.4
	c-0.1-0.6,0-1.3-0.1-1.9c-0.2-1.6-1.3-3-2.8-3.7c-0.9-0.3-2-0.5-2.5-1.3c1.3-0.8,2.2-2.1,2.6-3.5c0.4-1.5,0.6-3,0.6-4.5l0.3-5
	c0.1-2.3,0.2-4.5,1.2-6.5c0.4-0.9,1-1.8,1.5-2.6c0.6-1.3,1.1-2.5,1.5-3.9c0.7-2.1,1.4-4.1,2.1-6.2c0.2-1,0.6-2,1.1-2.9
	C449.7,431.6,450.5,430.4,451.5,430.2z"/>
<path class="st9" d="M440.4,462.9h1.3l0.3-2c0-0.4,0.1-0.8,0.3-1.2c0.2-0.4,0.5-0.8,0.8-1.1c1.3-1.8,1.2-4.3,1.5-6.5
	c0.6-3,1.6-5.9,2.9-8.6l2.6-5.8c0.2-0.5,0.4-1,0.6-1.5c0.1-0.6,0.2-1.1,0.2-1.7c0-0.9,0.3-4.1,0.3-5c0-0.3-0.7-0.2-0.9-0.4
	c-0.3-0.6-0.8,1.1-1.4,1.5c-0.6,0.4-1,1-1.2,1.7c-0.6,1.4-0.9,3-1.4,4.4c-0.5,1.5-1.3,2.8-2.4,3.9c-0.5,0.5-1.1,0.8-1.6,1.3
	c-1.6,1.6-1.8,4.1-1.8,6.3C440.3,449.7,440.1,462.9,440.4,462.9z"/>
<path class="st9" d="M459.5,427.8c-1.3,0.7-2.1,1.9-2.4,3.3c-0.2,1.4-0.6,2.7-1.2,4c-1.6,2.8-5.8,3.6-6.9,6.7
	c-0.3,1-0.4,2.1-0.5,3.2c-0.2,2.2-0.9,4.3-1.1,6.5c-0.1,1.7-0.1,3.4,0.1,5.1l1.5,17.2c0.3,2.5,0.1,5.1-0.4,7.6c1.5,0.2,3,0,4.3-0.7
	c1.4-0.6,2.6-1.5,3.9-2.2c2.2-1.2,4.7-2.1,6.7-3.8c0.4-0.3,0.7-0.6,0.9-1c0.3-0.7,0.5-1.5,0.6-2.3c0.2-0.6,0.4-1.2,0.7-1.8
	c0.7-1.7,1.3-3.5,1.9-5.3c0.4-1.2,0.6-2.4,0.9-3.6c0.2-1,0.3-2,0.3-3c0.1-1.6,0.4-3.1,0.9-4.5c1.3-3.5,2-7.2,2.1-10.9
	c0-0.5,0-1.1-0.1-1.6c-0.2-0.6-0.5-1.3-0.9-1.8c-0.6-1.1-1-2.4-1.5-3.5c-1.4-2.5-3.5-4.7-5.9-6.2
	C462.2,428.2,460.8,427.4,459.5,427.8z"/>
<path class="st10" d="M429.3,455.9c-1-0.5-2-1.2-2.8-2.1c-0.4-0.4-0.7-0.9-1-1.3c-0.9-1-2.1-1.7-3.5-2c-1.3-0.3-2.7-0.4-4-0.4
	c-0.9-0.1-1.8,0-2.7,0.3c-0.9,0.3-1.5,1-1.8,1.9c-0.1,1.1,0.4,2.2,1.4,2.8c0.8,0.6,1.7,1.1,2.7,1.3c0.8,0.1,1.6,0.2,2.4,0.3
	c4.8,0.5,9,3.1,13.2,5.5c3.7,2.1,7.4,4,11.3,5.8c0.1-1.1,0.2-2.3,0.2-3.5c0-0.9-0.1-2.2-0.9-2.7c-1.2-0.5-2.4-0.8-3.6-1.1
	c-2.5-0.8-4.9-1.8-7.2-2.9C431.8,457.4,430.5,456.7,429.3,455.9z"/>
<ellipse class="st10" cx="450.2" cy="420.4" rx="8.5" ry="8.6"/>
<path class="st9" d="M461.9,437.5c-0.7,1-1.2,2-1.7,3.1c-1,2.2-2.7,4-3.5,6.3s-0.8,5.2-2.5,7.1c-0.3,0.3-0.6,0.7-0.8,1.1
	c0,0.3,0,0.5-0.1,0.8c-0.3,0.7-1.4,0.7-1.6,1.4c-0.1,0.2,0,0.4-0.1,0.6c-0.2,0.5-0.8,0.5-1.2,0.8c-0.8,0.6-0.7,1.9-1.3,2.7
	c-0.5,0.6-1.3,0.9-2.1,0.8c-0.8-0.2-1.5-0.4-2.2-0.8c-0.2-0.1-0.5-0.2-0.8-0.3c-0.3,0-0.7,0.1-0.9,0.3c-1.5,1.1-2.4,2.9-2.3,4.8
	c0.1,1.9,0.6,3.7,1.3,5.4c0.1,0.3,0.2,0.6,0.4,0.8c0.6,0.5,1.4,0.5,2.1,0.2c0.7-0.4,1.3-0.7,2.1-0.9c1.3-0.2,2.6,0.7,4,0.6
	c1-0.1,1.9-0.5,2.7-1.2c1.3-0.8,2.6-1.8,3.6-3c0.6-0.8,1-1.6,1.5-2.5c0.7-1,1.4-2,2.1-2.9l4.9-6c0.5-0.6,0.9-1.2,1.3-1.8
	c0.4-0.9,0.8-1.8,1-2.8c0.5-1.6,0.9-3.2,1-4.9c0-1.4-0.1-2.8-0.4-4.1c-0.1-1.3-0.5-2.7-1-3.9C466.5,437,463.9,435.2,461.9,437.5z"/>
<path class="st12" d="M479,426.4c0-3.1-1.5-6-3.9-7.8c-0.1-5.6-4.2-10.3-9.7-11.1c-1.2-6-7-9.9-13-8.7c-4.6,0.9-8.1,4.6-8.8,9.3
	c-3.5-0.8-6.8,0.2-7.4,2.4s1.9,5,5.6,6c1.2,0.3,2.4,0.5,3.6,0.4c1.8,2.6,4.5,4.3,7.6,4.8c0.9,4.2,4.1,7.5,8.3,8.6
	c0.6,1.4,1.4,2.6,2.6,3.5c0,0.3,0,0.5,0,0.8c0,4,3.2,7.2,7.2,7.2c4,0,7.2-3.2,7.2-7.2c0,0,0,0,0,0c0-1.1-0.2-2.2-0.7-3.2
	C478.6,429.8,479.1,428.1,479,426.4z"/>
<path class="st5" d="M438.6,410.9c0.6-2.2,3.8-3.2,7.4-2.4c0.9-5.4,5.5-9.4,11-9.5h0.7c-1-0.3-2.1-0.5-3.1-0.5
	c-5.5,0.1-10.1,4.1-11,9.5c-3.5-0.8-6.8,0.2-7.4,2.4s1.9,5,5.6,6c0.7,0.2,1.4,0.3,2.1,0.4C440.4,415.8,438,413.2,438.6,410.9z"/>
<path class="st5" d="M466.4,435c0-0.3,0-0.5,0-0.8c-1.1-1-2-2.2-2.6-3.5c-4.2-1-7.4-4.4-8.3-8.6c-3.1-0.4-5.9-2.2-7.6-4.7
	c-0.7,0.1-1.4,0-2.1-0.1c1.8,2.4,4.4,4,7.4,4.4c0.9,4.2,4.1,7.5,8.3,8.6c0.6,1.4,1.4,2.6,2.6,3.5c0,0.3,0,0.5,0,0.8
	c-0.1,4,3.1,7.4,7.2,7.5C468.2,440.9,466.3,438.1,466.4,435z"/>
<ellipse transform="matrix(0.7963 -0.6049 0.6049 0.7963 -163.0426 360.0131)" class="st10" cx="453" cy="422.1" rx="1.3" ry="1.8"/>
</svg>
